<?xml version="1.0" encoding="utf-8"?>
<!-- Generator: Adobe Illustrator 21.1.0, SVG Export Plug-In . SVG Version: 6.00 Build 0)  -->
<svg version="1.1" id="Layer_1" xmlns="http://www.w3.org/2000/svg" xmlns:xlink="http://www.w3.org/1999/xlink" x="0px" y="0px"
	 viewBox="0 0 300 300" style="enable-background:new 0 0 300 300;" xml:space="preserve">
<style type="text/css">
	.st0{opacity:0.25;}
	.st1{fill:#FFFFFF;}
</style>
<g class="st0">
	<path class="st1" d="M84.2,14.5c5.1,0,6.1-0.7,6.1-6.1s-1.1-6.1-6.1-6.1c-5.1,0-6.1,0.7-6.1,6.1S79.2,14.5,84.2,14.5z"/>
	<path class="st1" d="M84.2,28.2c-7.6,0-10.5,2.9-10.5,10.5s2.9,10.5,10.5,10.5s10.5-2.9,10.5-10.5C94.7,31.1,91.8,28.2,84.2,28.2z"
		/>
	<g>
		<g>
			<path class="st1" d="M171.3,212.2c0-10.5,5.1-15.9,15.5-15.9c10.5,0,15.9,5.4,15.9,15.9s-5.4,15.5-15.9,15.5
				S171.3,222.7,171.3,212.2z M171.3,177.8c0-10.5,5.1-15.9,15.5-15.9c10.5,0,15.9,5.4,15.9,15.9s-5.4,15.9-15.9,15.9
				C176.4,193.7,171.3,188.3,171.3,177.8z M137,212.2c0-10.5,5.4-15.9,15.9-15.9s15.9,5.4,15.9,15.9s-5.4,15.5-15.9,15.5
				C142,227.7,137,222.7,137,212.2z M137,177.8c0-10.5,5.4-15.9,15.9-15.9s15.9,5.4,15.9,15.9s-5.4,15.9-15.9,15.9
				C142,193.7,137,188.3,137,177.8z M103,246.5c0-10.5,5.1-15.9,15.5-15.9s15.9,5.4,15.9,15.9s-5.4,15.9-15.9,15.9
				C108.1,262,103,257,103,246.5z M103,212.2c0-10.5,5.1-15.9,15.5-15.9s15.9,5.4,15.9,15.9s-5.4,15.5-15.9,15.5
				S103,222.7,103,212.2z M103,177.8c0-10.5,5.1-15.9,15.5-15.9s15.9,5.4,15.9,15.9s-5.4,15.9-15.9,15.9
				C108.1,193.7,103,188.3,103,177.8z M103,143.9c0-10.5,5.1-15.9,15.5-15.9s15.9,5.4,15.9,15.9s-5.4,15.5-15.9,15.5
				S103,154,103,143.9z M103,109.5c0-10.5,5.1-15.9,15.5-15.9s15.9,5.4,15.9,15.9s-5.4,15.9-15.9,15.9
				C108.1,125.1,103,120,103,109.5z M68.3,246.5c0-10.5,5.4-15.9,15.9-15.9s15.9,5.4,15.9,15.9s-5.4,15.9-15.9,15.9
				C73.7,262,68.3,257,68.3,246.5z M103,281.9c0-10.5,5.1-15.9,15.5-15.9s15.9,5.4,15.9,15.9s-5.4,15.9-15.9,15.9
				C108.1,297.5,103,292.4,103,281.9z M68.3,281.9c0-10.5,5.4-15.9,15.9-15.9s15.9,5.4,15.9,15.9s-5.4,15.9-15.9,15.9
				C73.7,297.5,68.3,292.4,68.3,281.9z M68.3,212.2c0-10.5,5.4-15.9,15.9-15.9s15.9,5.4,15.9,15.9s-5.4,15.5-15.9,15.5
				S68.3,222.7,68.3,212.2z M68.3,177.8c0-10.5,5.4-15.9,15.9-15.9s15.9,5.4,15.9,15.9s-5.4,15.9-15.9,15.9
				C73.7,193.7,68.3,188.3,68.3,177.8z M68.3,143.9c0-10.5,5.4-15.9,15.9-15.9s15.9,5.4,15.9,15.9s-5.4,15.5-15.9,15.5
				S68.3,154,68.3,143.9z M68.3,109.5c0-10.5,5.4-15.9,15.9-15.9s15.9,5.4,15.9,15.9s-5.4,15.9-15.9,15.9
				C73.7,125.1,68.3,120,68.3,109.5z M34.3,212.2c0-10.5,5.1-15.9,15.5-15.9s15.9,5.4,15.9,15.9s-5.4,15.5-15.9,15.5
				S34.3,222.7,34.3,212.2z M34.3,177.8c0-10.5,5.1-15.9,15.5-15.9s15.9,5.4,15.9,15.9s-5.4,15.9-15.9,15.9
				C39.4,193.7,34.3,188.3,34.3,177.8z M0,212.2c0-10.5,5.4-15.9,15.9-15.9s15.9,5.4,15.9,15.9s-5.4,15.5-15.9,15.5S0,222.7,0,212.2
				z M0,177.8c0-10.5,5.4-15.9,15.9-15.9s15.9,5.4,15.9,15.9s-5.4,15.9-15.9,15.9C5.4,193.7,0,188.3,0,177.8z"/>
		</g>
		<path class="st1" d="M255.9,200.6c-8,0-11.2,3.3-11.2,11.6c0,8,3.3,11.2,11.2,11.2c8.3,0,11.6-3.3,11.6-11.2
			C267.5,204.2,264.2,200.6,255.9,200.6z"/>
		<path class="st1" d="M255.9,166.3c-8,0-11.2,3.3-11.2,11.6s3.3,11.6,11.2,11.6c8.3,0,11.6-3.3,11.6-11.6
			C267.5,169.9,264.2,166.3,255.9,166.3z"/>
		<path class="st1" d="M221.9,200.2c-8.7,0-12.3,3.6-12.3,12.3c0,8.3,3.6,11.9,12.3,11.9c8.3,0,12.3-3.6,12.3-11.9
			C233.9,203.9,230.2,200.2,221.9,200.2z"/>
		<path class="st1" d="M221.9,165.9c-8.7,0-12.3,3.6-12.3,12.3c0,8.3,3.6,12.3,12.3,12.3c8.3,0,12.3-3.6,12.3-12.3
			C233.9,169.5,230.2,165.9,221.9,165.9z"/>
		<path class="st1" d="M291,221.2c6.9,0,9-2.2,9-8.7c0-6.9-2.2-9-9-9c-6.9,0-9,2.2-9,9C281.9,218.7,284.1,221.2,291,221.2z"/>
		<path class="st1" d="M291,186.9c6.9,0,9-2.2,9-9s-2.2-9-9-9c-6.9,0-9,2.2-9,9C281.9,184.7,284.1,186.9,291,186.9z"/>
	</g>
	<path class="st1" d="M118.2,60.4c-8.3,0-11.9,3.6-11.9,12.3s3.6,12.3,11.9,12.3s12.3-3.6,12.3-12.3S126.9,60.4,118.2,60.4z"/>
	<path class="st1" d="M84.2,60.4c-8.3,0-12.3,3.6-12.3,12.3s3.6,12.3,12.3,12.3c8.3,0,12.3-3.6,12.3-12.3S92.9,60.4,84.2,60.4z"/>
</g>
</svg>
