<svg width="903" height="969" viewBox="0 0 903 969" fill="none" xmlns="http://www.w3.org/2000/svg">
<g clip-path="url(#clip0_1217_4451)">
<path d="M581.208 45.4811C568.896 42.5737 561.272 30.2356 564.179 17.9231C567.086 5.61059 579.424 -2.01381 591.736 0.893519C604.048 3.80085 611.672 16.139 608.765 28.4515C605.857 40.764 593.52 48.3884 581.208 45.4811Z" fill="#8AD5F7" fill-opacity="0.03"/>
<path d="M532.995 43.3571C521.854 40.7263 514.955 29.5619 517.586 18.4206C520.217 7.27934 531.381 0.380222 542.521 3.01099C553.662 5.64176 560.561 16.8062 557.93 27.9475C555.3 39.0887 544.136 45.9878 532.995 43.3571Z" fill="#8AD5F7" fill-opacity="0.03"/>
<path d="M475.774 36.4686C468.45 29.1444 468.45 17.2696 475.774 9.94548C483.098 2.62133 494.972 2.62134 502.296 9.94549C509.62 17.2696 509.62 29.1444 502.296 36.4686C494.972 43.7927 483.098 43.7927 475.774 36.4686Z" fill="#8AD5F7" fill-opacity="0.03"/>
<path d="M436.628 38.9023C427.945 36.8518 422.568 28.1502 424.618 19.4666C426.668 10.7831 435.37 5.40586 444.053 7.4563C452.736 9.50673 458.113 18.2084 456.063 26.8919C454.012 35.5755 445.311 40.9527 436.628 38.9023Z" fill="#8AD5F7" fill-opacity="0.03"/>
<path d="M389.269 37.5904C381.318 36.3 375.919 28.8087 377.209 20.858C378.5 12.9073 385.991 7.50804 393.941 8.79839C401.891 10.0887 407.291 17.5801 406 25.5308C404.71 33.4814 397.219 38.8807 389.269 37.5904Z" fill="#8AD5F7" fill-opacity="0.03"/>
<path d="M342.896 36.3668C335.626 36.3668 329.732 30.473 329.732 23.2027C329.732 15.9323 335.626 10.0386 342.896 10.0386C350.166 10.0386 356.059 15.9323 356.059 23.2027C356.059 30.473 350.166 36.3668 342.896 36.3668Z" fill="#8AD5F7" fill-opacity="0.03"/>
<path d="M291.623 34.1598C285.556 32.7271 281.799 26.647 283.231 20.5796C284.664 14.5121 290.744 10.7549 296.811 12.1876C302.878 13.6203 306.635 19.7004 305.202 25.7678C303.77 31.8353 297.69 35.5925 291.623 34.1598Z" fill="#8AD5F7" fill-opacity="0.03"/>
<path d="M236.522 26.8853C234.478 21.9503 236.821 16.2931 241.756 14.2496C246.691 12.206 252.35 14.5499 254.395 19.4849C256.44 24.4198 254.097 30.077 249.161 32.1206C244.226 34.1642 238.567 31.8202 236.522 26.8853Z" fill="#8AD5F7" fill-opacity="0.03"/>
<path d="M196.766 31.0797C192.416 31.0797 188.89 27.5531 188.89 23.2027C188.89 18.8523 192.416 15.3257 196.766 15.3257C201.117 15.3257 204.643 18.8524 204.643 23.2027C204.643 27.5531 201.117 31.0797 196.766 31.0797Z" fill="#8AD5F7" fill-opacity="0.03"/>
<path d="M142.399 25.5177C141.109 22.4055 142.587 18.8377 145.699 17.5489C148.812 16.2601 152.38 17.7384 153.67 20.8506C154.96 23.9629 153.482 27.5306 150.369 28.8194C147.257 30.1082 143.688 28.63 142.399 25.5177Z" fill="#8AD5F7" fill-opacity="0.03"/>
<path d="M96.2176 26.7391C94.2618 25.0154 94.0743 22.0325 95.7979 20.0766C97.5214 18.1208 100.504 17.9332 102.46 19.6569C104.416 21.3805 104.603 24.3634 102.88 26.3193C101.156 28.2752 98.1733 28.4627 96.2176 26.7391Z" fill="#8AD5F7" fill-opacity="0.03"/>
<path d="M47.1306 23.422C47.0096 21.512 48.4598 19.8657 50.3698 19.7448C52.2797 19.6239 53.926 21.0742 54.047 22.9841C54.168 24.8941 52.7178 26.5404 50.8079 26.6613C48.898 26.7822 47.2516 25.3319 47.1306 23.422Z" fill="#8AD5F7" fill-opacity="0.03"/>
<path d="M629.911 94.1891C617.599 91.2817 609.975 78.9436 612.882 66.6311C615.789 54.3186 628.127 46.6942 640.439 49.6015C652.751 52.5089 660.375 64.847 657.468 77.1595C654.561 89.472 642.223 97.0964 629.911 94.1891Z" fill="#8AD5F7" fill-opacity="0.03"/>
<path d="M571.072 87.3062C562.573 78.8067 562.573 65.0263 571.072 56.5268C579.571 48.0273 593.351 48.0273 601.85 56.5268C610.349 65.0263 610.349 78.8067 601.85 87.3062C593.351 95.8057 579.571 95.8057 571.072 87.3062Z" fill="#8AD5F7" fill-opacity="0.03"/>
<path d="M523.822 85.8382C516.132 78.1478 516.132 65.6793 523.822 57.989C531.512 50.2986 543.98 50.2986 551.67 57.989C559.36 65.6793 559.36 78.1478 551.67 85.8382C543.98 93.5285 531.512 93.5286 523.822 85.8382Z" fill="#8AD5F7" fill-opacity="0.03"/>
<path d="M484.958 89.2294C475.382 86.9681 469.452 77.3718 471.714 67.7954C473.975 58.219 483.571 52.2889 493.147 54.5502C502.723 56.8114 508.653 66.4077 506.391 75.9841C504.13 85.5605 494.534 91.4906 484.958 89.2294Z" fill="#8AD5F7" fill-opacity="0.03"/>
<path d="M440.319 87.2639C431.84 87.2639 424.967 80.3905 424.967 71.9117C424.967 63.433 431.84 56.5596 440.319 56.5596C448.797 56.5596 455.671 63.433 455.671 71.9118C455.671 80.3905 448.797 87.2639 440.319 87.2639Z" fill="#8AD5F7" fill-opacity="0.03"/>
<path d="M388.451 85.3654C381.006 83.6074 376.396 76.1468 378.154 68.7017C379.912 61.2566 387.372 56.6463 394.817 58.4043C402.262 60.1623 406.872 67.6229 405.114 75.068C403.356 82.5131 395.896 87.1234 388.451 85.3654Z" fill="#8AD5F7" fill-opacity="0.03"/>
<path d="M342.896 84.4147C335.991 84.4147 330.394 78.8168 330.394 71.9114C330.394 65.0061 335.991 59.4082 342.896 59.4082C349.801 59.4082 355.399 65.0061 355.399 71.9114C355.399 78.8168 349.801 84.4147 342.896 84.4147Z" fill="#8AD5F7" fill-opacity="0.03"/>
<path d="M286.617 79.4965C282.432 75.3113 282.432 68.5257 286.617 64.3404C290.802 60.1552 297.587 60.1552 301.772 64.3404C305.957 68.5257 305.957 75.3113 301.772 79.4965C297.587 83.6817 290.802 83.6817 286.617 79.4965Z" fill="#8AD5F7" fill-opacity="0.03"/>
<path d="M243.391 80.8203C238.452 79.6539 235.393 74.7042 236.56 69.7648C237.726 64.8254 242.675 61.7667 247.615 62.9331C252.554 64.0994 255.612 69.0491 254.446 73.9885C253.28 78.9279 248.33 81.9866 243.391 80.8203Z" fill="#8AD5F7" fill-opacity="0.03"/>
<path d="M196.766 79.3954C192.633 79.3954 189.282 76.0447 189.282 71.9113C189.282 67.778 192.633 64.4272 196.766 64.4272C200.899 64.4272 204.25 67.778 204.25 71.9113C204.25 76.0447 200.899 79.3954 196.766 79.3954Z" fill="#8AD5F7" fill-opacity="0.03"/>
<path d="M143.954 76.0145C141.69 73.751 141.69 70.0811 143.954 67.8176C146.218 65.5541 149.89 65.5541 152.154 67.8176C154.418 70.0811 154.418 73.751 152.154 76.0145C149.89 78.278 146.218 78.278 143.954 76.0145Z" fill="#8AD5F7" fill-opacity="0.03"/>
<path d="M95.9762 68.9467C97.6105 67.0891 100.441 66.9105 102.299 68.5448C104.157 70.1792 104.335 73.0103 102.701 74.8679C101.067 76.7255 98.2357 76.9041 96.3781 75.2698C94.5206 73.6444 94.342 70.8043 95.9762 68.9467Z" fill="#8AD5F7" fill-opacity="0.03"/>
<path d="M48.1531 69.7324C49.3587 68.3659 51.4395 68.232 52.8058 69.4376C54.1722 70.6433 54.3062 72.7242 53.1006 74.0906C51.8949 75.4571 49.8141 75.591 48.4477 74.3853C47.0814 73.1797 46.9564 71.0988 48.1531 69.7324Z" fill="#8AD5F7" fill-opacity="0.03"/>
<path d="M630.17 141.792C618.473 139.03 611.229 127.308 613.991 115.609C616.753 103.911 628.475 96.6674 640.173 99.4297C651.87 102.192 659.114 113.914 656.352 125.612C653.59 137.31 641.868 144.554 630.17 141.792Z" fill="#8AD5F7" fill-opacity="0.03"/>
<path d="M586.458 141.305C575.04 141.305 565.784 132.048 565.784 120.63C565.784 109.211 575.04 99.9546 586.458 99.9546C597.876 99.9546 607.132 109.211 607.132 120.63C607.132 132.048 597.876 141.305 586.458 141.305Z" fill="#8AD5F7" fill-opacity="0.03"/>
<path d="M524.514 133.86C517.208 126.553 517.208 114.707 524.514 107.4C531.821 100.093 543.667 100.093 550.973 107.4C558.28 114.707 558.28 126.553 550.973 133.86C543.667 141.167 531.821 141.167 524.514 133.86Z" fill="#8AD5F7" fill-opacity="0.03"/>
<path d="M486.316 137.33C477.09 135.833 470.825 127.139 472.322 117.913C473.82 108.687 482.513 102.421 491.738 103.919C500.964 105.416 507.23 114.109 505.732 123.336C504.235 132.562 495.542 138.827 486.316 137.33Z" fill="#8AD5F7" fill-opacity="0.03"/>
<path d="M440.319 135.214C432.264 135.214 425.735 128.684 425.735 120.63C425.735 112.575 432.264 106.045 440.319 106.045C448.373 106.045 454.902 112.575 454.902 120.63C454.902 128.684 448.373 135.214 440.319 135.214Z" fill="#8AD5F7" fill-opacity="0.03"/>
<path d="M389.494 133.617C382.318 132.452 377.445 125.69 378.61 118.513C379.774 111.337 386.536 106.463 393.712 107.628C400.888 108.793 405.762 115.555 404.597 122.731C403.432 129.908 396.671 134.781 389.494 133.617Z" fill="#8AD5F7" fill-opacity="0.03"/>
<path d="M342.896 132.508C336.336 132.508 331.018 127.19 331.018 120.63C331.018 114.069 336.336 108.751 342.896 108.751C349.456 108.751 354.774 114.069 354.774 120.63C354.774 127.19 349.456 132.508 342.896 132.508Z" fill="#8AD5F7" fill-opacity="0.03"/>
<path d="M292.547 130.67C286.996 129.769 283.228 124.54 284.129 118.99C285.03 113.439 290.26 109.67 295.81 110.57C301.36 111.471 305.129 116.7 304.228 122.25C303.327 127.801 298.097 131.57 292.547 130.67Z" fill="#8AD5F7" fill-opacity="0.03"/>
<path d="M245.473 129.364C240.65 129.364 236.739 125.453 236.739 120.629C236.739 115.806 240.65 111.895 245.473 111.895C250.297 111.895 254.207 115.806 254.207 120.629C254.207 125.453 250.297 129.364 245.473 129.364Z" fill="#8AD5F7" fill-opacity="0.03"/>
<path d="M196.766 127.738C192.84 127.738 189.657 124.556 189.657 120.629C189.657 116.703 192.84 113.521 196.766 113.521C200.692 113.521 203.875 116.703 203.875 120.629C203.875 124.556 200.692 127.738 196.766 127.738Z" fill="#8AD5F7" fill-opacity="0.03"/>
<path d="M142.95 122.717C141.787 119.91 143.12 116.692 145.927 115.53C148.734 114.368 151.953 115.701 153.116 118.508C154.279 121.315 152.946 124.533 150.139 125.695C147.332 126.857 144.114 125.524 142.95 122.717Z" fill="#8AD5F7" fill-opacity="0.03"/>
<path d="M96.872 124.098C94.9665 122.717 94.5416 120.054 95.923 118.149C97.3043 116.244 99.9689 115.82 101.874 117.2C103.78 118.581 104.205 121.245 102.823 123.15C101.442 125.054 98.7776 125.479 96.872 124.098Z" fill="#8AD5F7" fill-opacity="0.03"/>
<path d="M683.881 190.014C672.463 190.014 663.207 180.757 663.207 169.339C663.207 157.92 672.463 148.664 683.881 148.664C695.299 148.664 704.555 157.92 704.555 169.339C704.555 180.757 695.299 190.014 683.881 190.014Z" fill="#8AD5F7" fill-opacity="0.03"/>
<path d="M617.015 176.853C612.865 166.832 617.623 155.343 627.643 151.192C637.664 147.041 649.152 151.8 653.303 161.821C657.453 171.842 652.695 183.33 642.675 187.481C632.654 191.632 621.166 186.873 617.015 176.853Z" fill="#8AD5F7" fill-opacity="0.03"/>
<path d="M586.458 187.995C576.155 187.995 567.802 179.642 567.802 169.339C567.802 159.035 576.155 150.682 586.458 150.682C596.761 150.682 605.114 159.035 605.114 169.339C605.114 179.642 596.761 187.995 586.458 187.995Z" fill="#8AD5F7" fill-opacity="0.03"/>
<path d="M535.166 185.167C526.422 183.748 520.484 175.509 521.903 166.765C523.322 158.02 531.561 152.082 540.305 153.501C549.048 154.92 554.986 163.159 553.567 171.904C552.148 180.648 543.91 186.586 535.166 185.167Z" fill="#8AD5F7" fill-opacity="0.03"/>
<path d="M489.035 183.851C481.02 183.851 474.523 177.353 474.523 169.338C474.523 161.323 481.02 154.826 489.035 154.826C497.05 154.826 503.547 161.323 503.547 169.338C503.547 177.353 497.05 183.851 489.035 183.851Z" fill="#8AD5F7" fill-opacity="0.03"/>
<path d="M440.319 181.842C433.414 181.842 427.816 176.244 427.816 169.339C427.816 162.433 433.414 156.835 440.319 156.835C447.224 156.835 452.822 162.433 452.822 169.339C452.822 176.244 447.224 181.842 440.319 181.842Z" fill="#8AD5F7" fill-opacity="0.03"/>
<path d="M381.696 173.433C379.43 167.965 382.026 161.697 387.495 159.432C392.963 157.168 399.233 159.765 401.499 165.233C403.765 170.702 401.169 176.97 395.7 179.234C390.232 181.499 383.962 178.901 381.696 173.433Z" fill="#8AD5F7" fill-opacity="0.03"/>
<path d="M342.896 179.011C337.555 179.011 333.225 174.68 333.225 169.339C333.225 163.997 337.555 159.667 342.896 159.667C348.238 159.667 352.568 163.997 352.568 169.339C352.568 174.68 348.238 179.011 342.896 179.011Z" fill="#8AD5F7" fill-opacity="0.03"/>
<path d="M294.189 177.635C289.607 177.635 285.893 173.92 285.893 169.338C285.893 164.756 289.607 161.042 294.189 161.042C298.771 161.042 302.486 164.756 302.486 169.338C302.486 173.92 298.771 177.635 294.189 177.635Z" fill="#8AD5F7" fill-opacity="0.03"/>
<path d="M245.473 176.447C241.547 176.447 238.365 173.265 238.365 169.338C238.365 165.412 241.547 162.229 245.473 162.229C249.399 162.229 252.582 165.412 252.582 169.338C252.582 173.265 249.399 176.447 245.473 176.447Z" fill="#8AD5F7" fill-opacity="0.03"/>
<path d="M196.766 174.84C193.728 174.84 191.265 172.377 191.265 169.338C191.265 166.3 193.728 163.837 196.766 163.837C199.804 163.837 202.267 166.3 202.267 169.338C202.267 172.377 199.804 174.84 196.766 174.84Z" fill="#8AD5F7" fill-opacity="0.03"/>
<path d="M147.1 173.44C144.811 172.9 143.393 170.606 143.934 168.316C144.475 166.026 146.769 164.608 149.059 165.149C151.349 165.689 152.766 167.984 152.225 170.273C151.685 172.563 149.39 173.981 147.1 173.44Z" fill="#8AD5F7" fill-opacity="0.03"/>
<path d="M630.166 239.214C618.468 236.452 611.225 224.729 613.987 213.031C616.749 201.333 628.471 194.089 640.169 196.852C651.866 199.614 659.11 211.336 656.348 223.034C653.586 234.732 641.864 241.976 630.166 239.214Z" fill="#8AD5F7" fill-opacity="0.03"/>
<path d="M586.458 238.731C575.04 238.731 565.784 229.475 565.784 218.056C565.784 206.638 575.04 197.381 586.458 197.381C597.876 197.381 607.132 206.638 607.132 218.056C607.132 229.475 597.876 238.731 586.458 238.731Z" fill="#8AD5F7" fill-opacity="0.03"/>
<path d="M524.515 231.286C517.208 223.979 517.208 212.133 524.515 204.826C531.821 197.519 543.667 197.519 550.973 204.826C558.28 212.133 558.28 223.979 550.973 231.286C543.667 238.593 531.821 238.593 524.515 231.286Z" fill="#8AD5F7" fill-opacity="0.03"/>
<path d="M485.155 234.498C476.059 232.35 470.427 223.234 472.574 214.138C474.722 205.042 483.837 199.409 492.933 201.557C502.029 203.705 507.662 212.82 505.514 221.916C503.366 231.013 494.251 236.645 485.155 234.498Z" fill="#8AD5F7" fill-opacity="0.03"/>
<path d="M440.319 232.64C432.264 232.64 425.735 226.111 425.735 218.056C425.735 210.002 432.264 203.472 440.319 203.472C448.373 203.472 454.902 210.002 454.902 218.056C454.902 226.111 448.373 232.64 440.319 232.64Z" fill="#8AD5F7" fill-opacity="0.03"/>
<path d="M388.601 230.834C381.526 229.163 377.145 222.073 378.815 214.997C380.486 207.922 387.576 203.54 394.651 205.211C401.726 206.882 406.107 213.972 404.437 221.048C402.766 228.123 395.676 232.505 388.601 230.834Z" fill="#8AD5F7" fill-opacity="0.03"/>
<path d="M342.896 229.934C336.336 229.934 331.018 224.616 331.018 218.056C331.018 211.496 336.336 206.178 342.896 206.178C349.456 206.178 354.774 211.496 354.774 218.056C354.774 224.616 349.456 229.934 342.896 229.934Z" fill="#8AD5F7" fill-opacity="0.03"/>
<path d="M286.993 225.26C283.017 221.284 283.017 214.838 286.993 210.862C290.969 206.886 297.415 206.886 301.39 210.862C305.366 214.838 305.366 221.284 301.39 225.26C297.415 229.236 290.969 229.236 286.993 225.26Z" fill="#8AD5F7" fill-opacity="0.03"/>
<path d="M245.473 226.791C240.65 226.791 236.739 222.881 236.739 218.057C236.739 213.233 240.65 209.322 245.473 209.322C250.297 209.322 254.207 213.233 254.207 218.057C254.207 222.881 250.297 226.791 245.473 226.791Z" fill="#8AD5F7" fill-opacity="0.03"/>
<path d="M196.766 225.165C192.84 225.165 189.657 221.982 189.657 218.056C189.657 214.13 192.84 210.947 196.766 210.947C200.692 210.947 203.875 214.13 203.875 218.056C203.875 221.982 200.692 225.165 196.766 225.165Z" fill="#8AD5F7" fill-opacity="0.03"/>
<path d="M144.16 221.949C142.011 219.8 142.011 216.317 144.16 214.169C146.31 212.02 149.794 212.02 151.943 214.169C154.093 216.317 154.093 219.8 151.943 221.949C149.794 224.097 146.31 224.097 144.16 221.949Z" fill="#8AD5F7" fill-opacity="0.03"/>
<path d="M102.531 220.87C100.977 222.638 98.2891 222.808 96.5209 221.254C94.7527 219.7 94.5831 217.012 96.1369 215.243C97.6908 213.475 100.379 213.305 102.147 214.859C103.915 216.413 104.085 219.102 102.531 220.87Z" fill="#8AD5F7" fill-opacity="0.03"/>
<path d="M631.487 289.376C618.999 287.35 610.519 275.583 612.546 263.094C614.572 250.606 626.339 242.125 638.826 244.152C651.314 246.179 659.795 257.946 657.768 270.434C655.741 282.922 643.975 291.403 631.487 289.376Z" fill="#8AD5F7" fill-opacity="0.03"/>
<path d="M571.073 282.159C562.574 273.659 562.574 259.879 571.073 251.379C579.572 242.88 593.352 242.88 601.851 251.379C610.351 259.879 610.351 273.659 601.851 282.159C593.352 290.658 579.572 290.658 571.073 282.159Z" fill="#8AD5F7" fill-opacity="0.03"/>
<path d="M519.539 274.299C515.377 264.251 520.148 252.731 530.196 248.569C540.244 244.407 551.763 249.178 555.926 259.226C560.088 269.275 555.316 280.795 545.268 284.957C535.22 289.119 523.701 284.347 519.539 274.299Z" fill="#8AD5F7" fill-opacity="0.03"/>
<path d="M472.562 273.584C468.796 264.493 473.113 254.07 482.204 250.304C491.295 246.539 501.717 250.856 505.483 259.947C509.249 269.038 504.932 279.461 495.841 283.227C486.75 286.993 476.328 282.675 472.562 273.584Z" fill="#8AD5F7" fill-opacity="0.03"/>
<path d="M440.319 282.117C431.84 282.117 424.967 275.244 424.967 266.765C424.967 258.286 431.84 251.413 440.319 251.413C448.797 251.413 455.671 258.286 455.671 266.765C455.671 275.244 448.797 282.117 440.319 282.117Z" fill="#8AD5F7" fill-opacity="0.03"/>
<path d="M378.801 272.065C375.873 264.997 379.229 256.894 386.297 253.966C393.365 251.038 401.467 254.395 404.395 261.463C407.323 268.531 403.966 276.634 396.899 279.561C389.831 282.489 381.728 279.133 378.801 272.065Z" fill="#8AD5F7" fill-opacity="0.03"/>
<path d="M342.896 279.269C335.991 279.269 330.394 273.671 330.394 266.765C330.394 259.86 335.991 254.262 342.896 254.262C349.801 254.262 355.399 259.86 355.399 266.765C355.399 273.671 349.801 279.269 342.896 279.269Z" fill="#8AD5F7" fill-opacity="0.03"/>
<path d="M284.269 270.86C282.003 265.392 284.599 259.124 290.068 256.859C295.536 254.595 301.806 257.192 304.072 262.66C306.338 268.128 303.742 274.397 298.273 276.661C292.805 278.925 286.535 276.328 284.269 270.86Z" fill="#8AD5F7" fill-opacity="0.03"/>
<path d="M243.987 275.828C238.977 275.015 235.576 270.295 236.389 265.285C237.202 260.275 241.923 256.872 246.933 257.685C251.943 258.498 255.344 263.218 254.531 268.228C253.718 273.238 248.997 276.64 243.987 275.828Z" fill="#8AD5F7" fill-opacity="0.03"/>
<path d="M196.766 274.249C192.633 274.249 189.282 270.899 189.282 266.765C189.282 262.632 192.633 259.281 196.766 259.281C200.899 259.281 204.25 262.632 204.25 266.765C204.25 270.899 200.899 274.249 196.766 274.249Z" fill="#8AD5F7" fill-opacity="0.03"/>
<path d="M142.678 268.971C141.452 266.014 142.857 262.624 145.814 261.399C148.772 260.174 152.163 261.579 153.388 264.536C154.614 267.494 153.21 270.884 150.252 272.109C147.294 273.333 143.903 271.929 142.678 268.971Z" fill="#8AD5F7" fill-opacity="0.03"/>
<path d="M102.701 269.731C101.067 271.588 98.2357 271.767 96.3781 270.133C94.5206 268.498 94.342 265.667 95.9762 263.81C97.6105 261.952 100.441 261.773 102.299 263.408C104.157 265.042 104.335 267.873 102.701 269.731Z" fill="#8AD5F7" fill-opacity="0.03"/>
<path d="M52.8058 264.291C54.1722 265.497 54.3062 267.578 53.1005 268.944C51.8949 270.311 49.8141 270.445 48.4477 269.239C47.0813 268.034 46.9474 265.953 48.153 264.586C49.3586 263.22 51.4394 263.095 52.8058 264.291Z" fill="#8AD5F7" fill-opacity="0.03"/>
<path d="M581.194 337.748C568.882 334.84 561.258 322.502 564.165 310.19C567.072 297.877 579.41 290.253 591.722 293.16C604.034 296.067 611.658 308.406 608.751 320.718C605.844 333.031 593.506 340.655 581.194 337.748Z" fill="#8AD5F7" fill-opacity="0.03"/>
<path d="M532.981 335.624C521.84 332.993 514.941 321.828 517.572 310.687C520.203 299.546 531.367 292.647 542.508 295.278C553.648 297.908 560.547 309.073 557.916 320.214C555.286 331.355 544.122 338.254 532.981 335.624Z" fill="#8AD5F7" fill-opacity="0.03"/>
<path d="M475.776 328.747C468.452 321.423 468.452 309.548 475.776 302.224C483.1 294.9 494.974 294.9 502.298 302.224C509.622 309.548 509.622 321.423 502.298 328.747C494.974 336.072 483.1 336.072 475.776 328.747Z" fill="#8AD5F7" fill-opacity="0.03"/>
<path d="M436.614 331.169C427.931 329.118 422.554 320.417 424.604 311.733C426.654 303.05 435.356 297.672 444.039 299.723C452.722 301.773 458.099 310.475 456.049 319.159C453.998 327.842 445.297 333.219 436.614 331.169Z" fill="#8AD5F7" fill-opacity="0.03"/>
<path d="M389.264 329.875C381.313 328.585 375.914 321.093 377.204 313.143C378.495 305.192 385.986 299.793 393.936 301.083C401.886 302.373 407.285 309.865 405.995 317.815C404.705 325.766 397.214 331.165 389.264 329.875Z" fill="#8AD5F7" fill-opacity="0.03"/>
<path d="M342.896 328.648C335.626 328.648 329.732 322.754 329.732 315.483C329.732 308.213 335.626 302.319 342.896 302.319C350.166 302.319 356.059 308.213 356.059 315.483C356.059 322.754 350.166 328.648 342.896 328.648Z" fill="#8AD5F7" fill-opacity="0.03"/>
<path d="M291.609 326.426C285.542 324.993 281.785 318.913 283.217 312.846C284.65 306.778 290.73 303.021 296.797 304.454C302.864 305.886 306.621 311.967 305.189 318.034C303.756 324.101 297.676 327.859 291.609 326.426Z" fill="#8AD5F7" fill-opacity="0.03"/>
<path d="M236.515 319.171C234.47 314.236 236.814 308.579 241.749 306.535C246.684 304.492 252.343 306.836 254.388 311.77C256.433 316.705 254.09 322.363 249.154 324.406C244.219 326.45 238.56 324.106 236.515 319.171Z" fill="#8AD5F7" fill-opacity="0.03"/>
<path d="M196.766 323.36C192.416 323.36 188.89 319.834 188.89 315.483C188.89 311.133 192.416 307.606 196.766 307.606C201.117 307.606 204.643 311.133 204.643 315.483C204.643 319.834 201.117 323.36 196.766 323.36Z" fill="#8AD5F7" fill-opacity="0.03"/>
<path d="M146.669 321.367C143.39 320.593 141.36 317.308 142.135 314.029C142.909 310.751 146.195 308.721 149.473 309.494C152.752 310.268 154.782 313.553 154.007 316.832C153.233 320.11 149.947 322.141 146.669 321.367Z" fill="#8AD5F7" fill-opacity="0.03"/>
<path d="M96.2176 319.02C94.2618 317.296 94.0743 314.313 95.7979 312.357C97.5214 310.402 100.504 310.214 102.46 311.938C104.416 313.661 104.603 316.644 102.88 318.6C101.156 320.556 98.1733 320.743 96.2176 319.02Z" fill="#8AD5F7" fill-opacity="0.03"/>
<path d="M48.3317 318.082C46.8939 316.814 46.7599 314.626 48.0191 313.188C49.2873 311.75 51.4752 311.616 52.913 312.876C54.3509 314.144 54.4848 316.332 53.2256 317.77C51.9664 319.208 49.7695 319.351 48.3317 318.082Z" fill="#8AD5F7" fill-opacity="0.03"/>
<path d="M629.897 386.456C617.585 383.548 609.961 371.21 612.869 358.898C615.776 346.585 628.113 338.961 640.425 341.868C652.737 344.775 660.362 357.114 657.454 369.426C654.547 381.739 642.209 389.363 629.897 386.456Z" fill="#8AD5F7" fill-opacity="0.03"/>
<path d="M571.073 379.585C562.574 371.085 562.574 357.305 571.073 348.806C579.572 340.306 593.352 340.306 601.851 348.806C610.351 357.305 610.351 371.086 601.851 379.585C593.352 388.085 579.572 388.085 571.073 379.585Z" fill="#8AD5F7" fill-opacity="0.03"/>
<path d="M534.577 383.629C523.841 381.887 516.551 371.771 518.293 361.036C520.036 350.3 530.151 343.01 540.886 344.752C551.621 346.494 558.911 356.61 557.169 367.345C555.427 378.081 545.312 385.371 534.577 383.629Z" fill="#8AD5F7" fill-opacity="0.03"/>
<path d="M484.944 381.495C475.368 379.234 469.439 369.637 471.7 360.061C473.961 350.485 483.557 344.555 493.133 346.816C502.709 349.077 508.639 358.673 506.377 368.25C504.116 377.826 494.52 383.756 484.944 381.495Z" fill="#8AD5F7" fill-opacity="0.03"/>
<path d="M440.319 379.545C431.84 379.545 424.967 372.671 424.967 364.193C424.967 355.714 431.84 348.84 440.319 348.84C448.797 348.84 455.67 355.714 455.67 364.193C455.67 372.671 448.797 379.545 440.319 379.545Z" fill="#8AD5F7" fill-opacity="0.03"/>
<path d="M389.38 377.861C381.829 376.635 376.701 369.52 377.927 361.969C379.152 354.417 386.267 349.289 393.818 350.515C401.369 351.74 406.497 358.856 405.272 366.407C404.046 373.958 396.931 379.087 389.38 377.861Z" fill="#8AD5F7" fill-opacity="0.03"/>
<path d="M342.896 376.695C335.991 376.695 330.394 371.098 330.394 364.192C330.394 357.287 335.991 351.689 342.896 351.689C349.801 351.689 355.399 357.287 355.399 364.192C355.399 371.098 349.801 376.695 342.896 376.695Z" fill="#8AD5F7" fill-opacity="0.03"/>
<path d="M286.618 371.775C282.433 367.59 282.433 360.804 286.618 356.619C290.803 352.434 297.588 352.434 301.773 356.619C305.958 360.804 305.958 367.59 301.773 371.775C297.588 375.96 290.803 375.96 286.618 371.775Z" fill="#8AD5F7" fill-opacity="0.03"/>
<path d="M243.377 373.086C238.438 371.92 235.379 366.97 236.545 362.031C237.712 357.092 242.661 354.033 247.6 355.199C252.54 356.366 255.598 361.315 254.432 366.255C253.266 371.194 248.316 374.253 243.377 373.086Z" fill="#8AD5F7" fill-opacity="0.03"/>
<path d="M196.766 371.676C192.633 371.676 189.282 368.325 189.282 364.192C189.282 360.059 192.633 356.708 196.766 356.708C200.899 356.708 204.25 360.059 204.25 364.192C204.25 368.325 200.899 371.676 196.766 371.676Z" fill="#8AD5F7" fill-opacity="0.03"/>
<path d="M143.956 368.293C141.691 366.029 141.691 362.359 143.956 360.096C146.22 357.832 149.891 357.832 152.156 360.096C154.42 362.359 154.42 366.029 152.156 368.293C149.891 370.556 146.22 370.556 143.956 368.293Z" fill="#8AD5F7" fill-opacity="0.03"/>
<path d="M95.9762 361.227C97.6105 359.37 100.441 359.191 102.299 360.826C104.156 362.46 104.335 365.291 102.701 367.149C101.067 369.006 98.2356 369.185 96.3781 367.551C94.5205 365.925 94.3419 363.085 95.9762 361.227Z" fill="#8AD5F7" fill-opacity="0.03"/>
<path d="M48.153 362.013C49.3586 360.647 51.4394 360.513 52.8058 361.718C54.1721 362.924 54.3061 365.005 53.1005 366.371C51.8949 367.738 49.814 367.872 48.4477 366.666C47.0813 365.46 46.9563 363.38 48.153 362.013Z" fill="#8AD5F7" fill-opacity="0.03"/>
<path d="M678.87 434.062C667.172 431.3 659.929 419.578 662.691 407.879C665.453 396.181 677.175 388.937 688.872 391.7C700.57 394.462 707.814 406.184 705.052 417.882C702.289 429.58 690.567 436.824 678.87 434.062Z" fill="#8AD5F7" fill-opacity="0.03"/>
<path d="M635.165 433.585C623.747 433.585 614.491 424.329 614.491 412.91C614.491 401.492 623.747 392.235 635.165 392.235C646.583 392.235 655.839 401.492 655.839 412.91C655.839 424.329 646.583 433.585 635.165 433.585Z" fill="#8AD5F7" fill-opacity="0.03"/>
<path d="M586.458 432.549C575.612 432.549 566.82 423.757 566.82 412.91C566.82 402.064 575.612 393.271 586.458 393.271C597.304 393.271 606.096 402.064 606.096 412.91C606.096 423.757 597.304 432.549 586.458 432.549Z" fill="#8AD5F7" fill-opacity="0.03"/>
<path d="M534.883 430.452C525.194 428.88 518.615 419.751 520.187 410.062C521.76 400.373 530.888 393.793 540.577 395.366C550.265 396.938 556.844 406.067 555.272 415.756C553.7 425.445 544.571 432.025 534.883 430.452Z" fill="#8AD5F7" fill-opacity="0.03"/>
<path d="M489.035 428.986C480.157 428.986 472.96 421.788 472.96 412.91C472.96 404.032 480.157 396.834 489.035 396.834C497.913 396.834 505.11 404.032 505.11 412.91C505.11 421.788 497.913 428.986 489.035 428.986Z" fill="#8AD5F7" fill-opacity="0.03"/>
<path d="M440.319 426.762C432.669 426.762 426.468 420.561 426.468 412.91C426.468 405.26 432.669 399.059 440.319 399.059C447.969 399.059 454.17 405.26 454.17 412.91C454.17 420.561 447.969 426.762 440.319 426.762Z" fill="#8AD5F7" fill-opacity="0.03"/>
<path d="M389.595 425.249C382.779 424.142 378.15 417.72 379.256 410.904C380.362 404.088 386.785 399.459 393.601 400.565C400.417 401.671 405.045 408.094 403.939 414.91C402.833 421.726 396.411 426.355 389.595 425.249Z" fill="#8AD5F7" fill-opacity="0.03"/>
<path d="M332.445 417.22C330.058 411.46 332.793 404.857 338.553 402.472C344.313 400.087 350.917 402.823 353.304 408.582C355.691 414.342 352.956 420.945 347.196 423.33C341.436 425.715 334.831 422.979 332.445 417.22Z" fill="#8AD5F7" fill-opacity="0.03"/>
<path d="M294.189 422.583C288.848 422.583 284.518 418.252 284.518 412.91C284.518 407.569 288.848 403.238 294.189 403.238C299.531 403.238 303.861 407.569 303.861 412.91C303.861 418.252 299.531 422.583 294.189 422.583Z" fill="#8AD5F7" fill-opacity="0.03"/>
<path d="M245.473 421.207C240.891 421.207 237.177 417.492 237.177 412.91C237.177 408.328 240.891 404.613 245.473 404.613C250.055 404.613 253.77 408.328 253.77 412.91C253.77 417.492 250.055 421.207 245.473 421.207Z" fill="#8AD5F7" fill-opacity="0.03"/>
<path d="M196.766 419.671C193.033 419.671 190.006 416.644 190.006 412.91C190.006 409.176 193.033 406.149 196.766 406.149C200.5 406.149 203.527 409.176 203.527 412.91C203.527 416.644 200.5 419.671 196.766 419.671Z" fill="#8AD5F7" fill-opacity="0.03"/>
<path d="M146.865 417.938C144.057 417.275 142.318 414.461 142.982 411.653C143.645 408.845 146.459 407.106 149.267 407.769C152.075 408.431 153.814 411.245 153.151 414.053C152.487 416.861 149.673 418.6 146.865 417.938Z" fill="#8AD5F7" fill-opacity="0.03"/>
<path d="M96.6638 415.946C94.9849 414.473 94.8242 411.91 96.3066 410.24C97.7891 408.57 100.343 408.4 102.013 409.882C103.683 411.365 103.853 413.919 102.37 415.589C100.897 417.259 98.3427 417.42 96.6638 415.946Z" fill="#8AD5F7" fill-opacity="0.03"/>
<path d="M533.213 480.744C522.629 478.245 516.075 467.639 518.574 457.054C521.073 446.47 531.679 439.915 542.263 442.415C552.847 444.914 559.401 455.52 556.902 466.105C554.403 476.689 543.797 483.244 533.213 480.744Z" fill="#8AD5F7" fill-opacity="0.03"/>
<path d="M476.443 474.221C469.485 467.263 469.485 455.982 476.443 449.024C483.401 442.066 494.681 442.066 501.639 449.024C508.597 455.982 508.597 467.263 501.639 474.221C494.681 481.178 483.401 481.178 476.443 474.221Z" fill="#8AD5F7" fill-opacity="0.03"/>
<path d="M440.319 476.971C431.84 476.971 424.967 470.098 424.967 461.619C424.967 453.14 431.84 446.267 440.319 446.267C448.797 446.267 455.67 453.141 455.67 461.619C455.67 470.098 448.797 476.971 440.319 476.971Z" fill="#8AD5F7" fill-opacity="0.03"/>
<path d="M381.824 471.417C376.415 466.008 376.415 457.237 381.824 451.828C387.233 446.419 396.003 446.419 401.413 451.828C406.822 457.237 406.822 466.008 401.413 471.417C396.003 476.827 387.233 476.827 381.824 471.417Z" fill="#8AD5F7" fill-opacity="0.03"/>
<path d="M342.896 474.123C335.991 474.123 330.394 468.525 330.394 461.619C330.394 454.714 335.991 449.116 342.896 449.116C349.801 449.116 355.399 454.714 355.399 461.619C355.399 468.525 349.801 474.123 342.896 474.123Z" fill="#8AD5F7" fill-opacity="0.03"/>
<path d="M291.735 471.999C285.975 470.638 282.408 464.866 283.768 459.106C285.128 453.346 290.9 449.779 296.66 451.139C302.42 452.499 305.987 458.271 304.627 464.031C303.267 469.792 297.495 473.359 291.735 471.999Z" fill="#8AD5F7" fill-opacity="0.03"/>
<path d="M238.984 468.118C235.395 464.529 235.395 458.711 238.984 455.122C242.573 451.533 248.391 451.533 251.98 455.122C255.568 458.711 255.568 464.529 251.98 468.118C248.391 471.707 242.573 471.707 238.984 468.118Z" fill="#8AD5F7" fill-opacity="0.03"/>
<path d="M196.766 469.103C192.633 469.103 189.282 465.753 189.282 461.619C189.282 457.486 192.633 454.135 196.766 454.135C200.899 454.135 204.25 457.486 204.25 461.619C204.25 465.753 200.899 469.103 196.766 469.103Z" fill="#8AD5F7" fill-opacity="0.03"/>
<path d="M146.732 467.2C143.617 466.465 141.688 463.344 142.424 460.228C143.16 457.113 146.282 455.184 149.397 455.919C152.512 456.654 154.441 459.776 153.705 462.891C152.969 466.006 149.847 467.936 146.732 467.2Z" fill="#8AD5F7" fill-opacity="0.03"/>
<path d="M102.701 464.584C101.067 466.442 98.2356 466.621 96.3781 464.986C94.5205 463.352 94.3419 460.521 95.9762 458.663C97.6105 456.805 100.441 456.627 102.299 458.261C104.156 459.895 104.335 462.727 102.701 464.584Z" fill="#8AD5F7" fill-opacity="0.03"/>
<path d="M52.8058 459.145C54.1721 460.351 54.3061 462.432 53.1005 463.798C51.8949 465.165 49.814 465.299 48.4476 464.093C47.0812 462.888 46.9473 460.807 48.153 459.44C49.3586 458.074 51.4394 457.949 52.8058 459.145Z" fill="#8AD5F7" fill-opacity="0.03"/>
<path d="M1.1161 464.093C-0.250225 462.888 -0.38414 460.807 0.821445 459.44C2.02703 458.074 4.10775 457.94 5.47407 459.146C6.8404 460.351 6.97437 462.432 5.76879 463.799C4.5632 465.165 2.48243 465.299 1.1161 464.093Z" fill="#8AD5F7" fill-opacity="0.03"/>
<path d="M5.47407 504.693C6.8404 505.898 6.97437 507.979 5.76879 509.346C4.5632 510.712 2.48243 510.846 1.1161 509.641C-0.250225 508.435 -0.38414 506.354 0.821445 504.988C2.02703 503.621 4.10775 503.496 5.47407 504.693Z" fill="#8AD5F7" fill-opacity="0.03"/>
<path d="M5.47407 550.24C6.8404 551.446 6.97437 553.527 5.76879 554.893C4.5632 556.26 2.48243 556.394 1.1161 555.188C-0.250225 553.982 -0.38414 551.901 0.821445 550.535C2.02703 549.168 4.10775 549.043 5.47407 550.24Z" fill="#8AD5F7" fill-opacity="0.03"/>
<path d="M584.817 968.66C572.198 967.763 562.695 956.806 563.593 944.186C564.49 931.566 575.447 922.062 588.067 922.959C600.686 923.856 610.189 934.813 609.292 947.433C608.394 960.053 597.437 969.557 584.817 968.66Z" fill="#8AD5F7" fill-opacity="0.03"/>
<path d="M535.749 966.407C524.357 965.28 516.037 955.131 517.164 943.739C518.292 932.347 528.441 924.026 539.832 925.154C551.224 926.281 559.544 936.43 558.417 947.822C557.289 959.214 547.14 967.535 535.749 966.407Z" fill="#8AD5F7" fill-opacity="0.03"/>
<path d="M481.835 963.14C472.265 959.176 467.721 948.205 471.685 938.635C475.649 929.065 486.619 924.521 496.189 928.485C505.758 932.449 510.302 943.42 506.339 952.99C502.375 962.559 491.404 967.104 481.835 963.14Z" fill="#8AD5F7" fill-opacity="0.03"/>
<path d="M439.156 961.923C430.256 961.291 423.554 953.563 424.187 944.663C424.82 935.763 432.548 929.06 441.448 929.692C450.348 930.325 457.05 938.053 456.417 946.953C455.784 955.853 448.056 962.556 439.156 961.923Z" fill="#8AD5F7" fill-opacity="0.03"/>
<path d="M377.194 948.148C375.903 940.197 381.301 932.706 389.252 931.416C397.202 930.126 404.694 935.526 405.985 943.477C407.276 951.427 401.877 958.918 393.926 960.208C385.976 961.498 378.484 956.098 377.194 948.148Z" fill="#8AD5F7" fill-opacity="0.03"/>
<path d="M342.896 932.643C350.165 932.643 356.059 938.537 356.059 945.807C356.059 953.076 350.165 958.971 342.896 958.971C335.626 958.971 329.732 953.076 329.732 945.807C329.732 938.528 335.626 932.643 342.896 932.643Z" fill="#8AD5F7" fill-opacity="0.03"/>
<path d="M294.189 934.518C300.423 934.518 305.477 939.573 305.477 945.807C305.477 952.04 300.423 957.095 294.189 957.095C287.956 957.095 282.901 952.04 282.901 945.807C282.901 939.564 287.956 934.518 294.189 934.518Z" fill="#8AD5F7" fill-opacity="0.03"/>
<path d="M243.897 955.344C238.625 954.488 235.044 949.521 235.9 944.248C236.756 938.975 241.725 935.394 246.997 936.25C252.27 937.105 255.851 942.073 254.994 947.346C254.138 952.618 249.17 956.199 243.897 955.344Z" fill="#8AD5F7" fill-opacity="0.03"/>
<path d="M196.766 937.921C201.115 937.921 204.643 941.449 204.643 945.798C204.643 950.147 201.115 953.675 196.766 953.675C192.417 953.675 188.89 950.147 188.89 945.798C188.881 941.449 192.408 937.921 196.766 937.921Z" fill="#8AD5F7" fill-opacity="0.03"/>
<path d="M148.05 939.707C151.417 939.707 154.15 942.44 154.15 945.807C154.15 949.174 151.417 951.907 148.05 951.907C144.684 951.907 141.951 949.174 141.951 945.807C141.951 942.431 144.684 939.707 148.05 939.707Z" fill="#8AD5F7" fill-opacity="0.03"/>
<path d="M102.88 942.681C104.603 944.637 104.416 947.62 102.46 949.343C100.504 951.067 97.5214 950.879 95.7978 948.924C94.0742 946.968 94.2618 943.985 96.2175 942.261C98.1733 940.538 101.156 940.725 102.88 942.681Z" fill="#8AD5F7" fill-opacity="0.03"/>
<path d="M53.2345 943.512C54.5026 944.95 54.3597 947.138 52.9219 948.406C51.4841 949.674 49.2962 949.531 48.028 948.093C46.7599 946.655 46.9028 944.467 48.3406 943.199C49.7695 941.931 51.9663 942.074 53.2345 943.512Z" fill="#8AD5F7" fill-opacity="0.03"/>
<path d="M632.353 919.814C619.797 918.268 610.871 906.835 612.417 894.278C613.963 881.722 625.395 872.796 637.951 874.342C650.507 875.888 659.433 887.32 657.887 899.877C656.341 912.434 644.909 921.36 632.353 919.814Z" fill="#8AD5F7" fill-opacity="0.03"/>
<path d="M583.786 918.679C571.856 917.21 563.376 906.348 564.845 894.418C566.313 882.488 577.175 874.007 589.105 875.476C601.034 876.945 609.514 887.807 608.046 899.737C606.577 911.667 595.715 920.148 583.786 918.679Z" fill="#8AD5F7" fill-opacity="0.03"/>
<path d="M519.523 904.631C515.361 894.583 520.133 883.063 530.18 878.901C540.228 874.738 551.748 879.51 555.91 889.558C560.072 899.606 555.3 911.126 545.252 915.288C535.205 919.45 523.685 914.679 519.523 904.631Z" fill="#8AD5F7" fill-opacity="0.03"/>
<path d="M472.545 903.916C468.779 894.824 473.096 884.402 482.187 880.636C491.278 876.87 501.7 881.187 505.466 890.278C509.232 899.37 504.915 909.793 495.824 913.558C486.733 917.324 476.31 913.007 472.545 903.916Z" fill="#8AD5F7" fill-opacity="0.03"/>
<path d="M440.319 912.441C431.84 912.441 424.967 905.568 424.967 897.089C424.967 888.61 431.84 881.737 440.319 881.737C448.797 881.737 455.67 888.61 455.67 897.089C455.67 905.568 448.797 912.441 440.319 912.441Z" fill="#8AD5F7" fill-opacity="0.03"/>
<path d="M378.784 902.396C375.856 895.328 379.213 887.225 386.28 884.297C393.348 881.369 401.451 884.726 404.378 891.794C407.306 898.862 403.95 906.965 396.882 909.892C389.814 912.82 381.711 909.464 378.784 902.396Z" fill="#8AD5F7" fill-opacity="0.03"/>
<path d="M342.896 909.592C335.991 909.592 330.394 903.994 330.394 897.089C330.394 890.183 335.991 884.585 342.896 884.585C349.801 884.585 355.399 890.183 355.399 897.089C355.399 903.994 349.801 909.592 342.896 909.592Z" fill="#8AD5F7" fill-opacity="0.03"/>
<path d="M284.252 901.192C281.986 895.723 284.583 889.455 290.051 887.191C295.52 884.926 301.79 887.524 304.055 892.992C306.321 898.46 303.725 904.728 298.257 906.993C292.788 909.257 286.518 906.66 284.252 901.192Z" fill="#8AD5F7" fill-opacity="0.03"/>
<path d="M243.975 906.159C238.965 905.346 235.563 900.626 236.377 895.616C237.19 890.606 241.911 887.204 246.92 888.017C251.93 888.829 255.332 893.55 254.519 898.56C253.705 903.569 248.985 906.972 243.975 906.159Z" fill="#8AD5F7" fill-opacity="0.03"/>
<path d="M196.766 904.573C192.633 904.573 189.282 901.222 189.282 897.089C189.282 892.956 192.633 889.605 196.766 889.605C200.899 889.605 204.25 892.956 204.25 897.089C204.25 901.222 200.899 904.573 196.766 904.573Z" fill="#8AD5F7" fill-opacity="0.03"/>
<path d="M142.662 899.303C141.436 896.345 142.84 892.955 145.798 891.731C148.756 890.506 152.147 891.911 153.372 894.868C154.598 897.825 153.193 901.215 150.236 902.44C147.278 903.665 143.887 902.26 142.662 899.303Z" fill="#8AD5F7" fill-opacity="0.03"/>
<path d="M102.299 900.447C100.441 902.081 97.6105 901.903 95.9762 900.045C94.3419 898.187 94.5205 895.356 96.3781 893.722C98.2356 892.088 101.067 892.266 102.701 894.124C104.335 895.982 104.156 898.813 102.299 900.447Z" fill="#8AD5F7" fill-opacity="0.03"/>
<path d="M52.8058 899.563C51.4394 900.768 49.3586 900.634 48.153 899.268C46.9473 897.901 47.0812 895.821 48.4476 894.615C49.814 893.409 51.8949 893.543 53.1005 894.91C54.3061 896.276 54.1721 898.357 52.8058 899.563Z" fill="#8AD5F7" fill-opacity="0.03"/>
<path d="M630.137 869.498C618.44 866.735 611.196 855.013 613.958 843.315C616.72 831.617 628.442 824.373 640.14 827.135C651.838 829.897 659.081 841.62 656.319 853.318C653.557 865.016 641.835 872.26 630.137 869.498Z" fill="#8AD5F7" fill-opacity="0.03"/>
<path d="M586.458 869.046C575.04 869.046 565.783 859.789 565.783 848.371C565.783 836.952 575.04 827.696 586.458 827.696C597.876 827.696 607.132 836.952 607.132 848.371C607.132 859.789 597.876 869.046 586.458 869.046Z" fill="#8AD5F7" fill-opacity="0.03"/>
<path d="M524.523 861.598C517.216 854.291 517.216 842.444 524.523 835.138C531.829 827.831 543.675 827.831 550.982 835.138C558.288 842.444 558.288 854.291 550.982 861.598C543.675 868.904 531.829 868.904 524.523 861.598Z" fill="#8AD5F7" fill-opacity="0.03"/>
<path d="M485.127 864.782C476.03 862.634 470.398 853.519 472.546 844.422C474.694 835.326 483.808 829.693 492.904 831.841C502 833.989 507.633 843.104 505.485 852.2C503.337 861.297 494.223 866.93 485.127 864.782Z" fill="#8AD5F7" fill-opacity="0.03"/>
<path d="M440.319 862.955C432.264 862.955 425.735 856.425 425.735 848.371C425.735 840.316 432.264 833.787 440.319 833.787C448.373 833.787 454.902 840.316 454.902 848.371C454.902 856.425 448.373 862.955 440.319 862.955Z" fill="#8AD5F7" fill-opacity="0.03"/>
<path d="M388.573 861.118C381.497 859.447 377.116 852.357 378.787 845.282C380.458 838.206 387.547 833.825 394.623 835.495C401.698 837.166 406.079 844.256 404.408 851.332C402.738 858.407 395.648 862.789 388.573 861.118Z" fill="#8AD5F7" fill-opacity="0.03"/>
<path d="M342.896 860.249C336.336 860.249 331.018 854.931 331.018 848.371C331.018 841.811 336.336 836.493 342.896 836.493C349.456 836.493 354.773 841.811 354.773 848.371C354.773 854.931 349.456 860.249 342.896 860.249Z" fill="#8AD5F7" fill-opacity="0.03"/>
<path d="M287.001 855.572C283.025 851.596 283.025 845.149 287.001 841.173C290.976 837.197 297.423 837.197 301.398 841.173C305.374 845.149 305.374 851.596 301.398 855.572C297.423 859.548 290.976 859.548 287.001 855.572Z" fill="#8AD5F7" fill-opacity="0.03"/>
<path d="M245.473 857.106C240.65 857.106 236.739 853.195 236.739 848.371C236.739 843.547 240.65 839.637 245.473 839.637C250.297 839.637 254.207 843.547 254.207 848.371C254.207 853.195 250.297 857.106 245.473 857.106Z" fill="#8AD5F7" fill-opacity="0.03"/>
<path d="M196.766 855.48C192.84 855.48 189.657 852.297 189.657 848.371C189.657 844.445 192.84 841.262 196.766 841.262C200.692 841.262 203.875 844.445 203.875 848.371C203.875 852.297 200.692 855.48 196.766 855.48Z" fill="#8AD5F7" fill-opacity="0.03"/>
<path d="M144.168 852.261C142.019 850.112 142.019 846.629 144.168 844.481C146.318 842.332 149.802 842.332 151.951 844.481C154.101 846.629 154.101 850.112 151.951 852.261C149.802 854.409 146.318 854.409 144.168 852.261Z" fill="#8AD5F7" fill-opacity="0.03"/>
<path d="M102.531 845.558C104.085 847.326 103.915 850.014 102.147 851.568C100.379 853.122 97.6908 852.953 96.1369 851.184C94.583 849.416 94.7527 846.728 96.5209 845.174C98.2891 843.62 100.977 843.798 102.531 845.558Z" fill="#8AD5F7" fill-opacity="0.03"/>
<path d="M683.881 820.337C672.463 820.337 663.207 811.08 663.207 799.662C663.207 788.243 672.463 778.987 683.881 778.987C695.299 778.987 704.555 788.243 704.555 799.662C704.555 811.08 695.299 820.337 683.881 820.337Z" fill="#8AD5F7" fill-opacity="0.03"/>
<path d="M621.285 813.544C613.616 805.875 613.616 793.44 621.285 785.771C628.954 778.101 641.388 778.101 649.057 785.771C656.726 793.44 656.726 805.875 649.057 813.544C641.388 821.213 628.954 821.213 621.285 813.544Z" fill="#8AD5F7" fill-opacity="0.03"/>
<path d="M586.458 818.319C576.155 818.319 567.802 809.966 567.802 799.662C567.802 789.358 576.155 781.005 586.458 781.005C596.761 781.005 605.114 789.358 605.114 799.662C605.114 809.966 596.761 818.319 586.458 818.319Z" fill="#8AD5F7" fill-opacity="0.03"/>
<path d="M522.899 805.804C519.509 797.62 523.395 788.237 531.58 784.847C539.764 781.457 549.146 785.343 552.536 793.528C555.927 801.712 552.04 811.095 543.856 814.485C535.672 817.875 526.289 813.989 522.899 805.804Z" fill="#8AD5F7" fill-opacity="0.03"/>
<path d="M489.035 814.175C481.02 814.175 474.523 807.677 474.523 799.662C474.523 791.647 481.02 785.149 489.035 785.149C497.05 785.149 503.547 791.647 503.547 799.662C503.547 807.677 497.05 814.175 489.035 814.175Z" fill="#8AD5F7" fill-opacity="0.03"/>
<path d="M440.319 812.165C433.414 812.165 427.816 806.567 427.816 799.662C427.816 792.757 433.414 787.159 440.319 787.159C447.224 787.159 452.821 792.757 452.821 799.662C452.821 806.567 447.224 812.165 440.319 812.165Z" fill="#8AD5F7" fill-opacity="0.03"/>
<path d="M389.874 810.242C384.032 809.294 380.065 803.789 381.013 797.947C381.961 792.104 387.466 788.137 393.308 789.085C399.15 790.033 403.118 795.538 402.169 801.381C401.221 807.223 395.717 811.191 389.874 810.242Z" fill="#8AD5F7" fill-opacity="0.03"/>
<path d="M342.896 809.334C337.555 809.334 333.224 805.004 333.224 799.662C333.224 794.32 337.555 789.99 342.896 789.99C348.238 789.99 352.568 794.32 352.568 799.662C352.568 805.004 348.238 809.334 342.896 809.334Z" fill="#8AD5F7" fill-opacity="0.03"/>
<path d="M294.189 807.959C289.607 807.959 285.893 804.244 285.893 799.662C285.893 795.08 289.607 791.365 294.189 791.365C298.771 791.365 302.486 795.08 302.486 799.662C302.486 804.244 298.771 807.959 294.189 807.959Z" fill="#8AD5F7" fill-opacity="0.03"/>
<path d="M245.473 806.771C241.547 806.771 238.365 803.588 238.365 799.662C238.365 795.736 241.547 792.553 245.473 792.553C249.399 792.553 252.582 795.736 252.582 799.662C252.582 803.588 249.399 806.771 245.473 806.771Z" fill="#8AD5F7" fill-opacity="0.03"/>
<path d="M196.766 805.164C193.728 805.164 191.265 802.7 191.265 799.662C191.265 796.624 193.728 794.161 196.766 794.161C199.804 794.161 202.267 796.624 202.267 799.662C202.267 802.7 199.804 805.164 196.766 805.164Z" fill="#8AD5F7" fill-opacity="0.03"/>
<path d="M147.069 803.731C144.779 803.191 143.362 800.896 143.902 798.607C144.443 796.317 146.738 794.899 149.027 795.439C151.317 795.98 152.735 798.274 152.194 800.564C151.653 802.854 149.358 804.272 147.069 803.731Z" fill="#8AD5F7" fill-opacity="0.03"/>
<path d="M630.142 772.075C618.444 769.313 611.2 757.591 613.962 745.893C616.725 734.195 628.447 726.951 640.144 729.713C651.842 732.475 659.085 744.198 656.323 755.896C653.561 767.594 641.839 774.838 630.142 772.075Z" fill="#8AD5F7" fill-opacity="0.03"/>
<path d="M586.458 771.619C575.04 771.619 565.783 762.363 565.783 750.944C565.783 739.526 575.04 730.269 586.458 730.269C597.876 730.269 607.132 739.526 607.132 750.944C607.132 762.363 597.876 771.619 586.458 771.619Z" fill="#8AD5F7" fill-opacity="0.03"/>
<path d="M524.522 764.171C517.215 756.865 517.215 745.018 524.522 737.711C531.828 730.405 543.674 730.405 550.981 737.711C558.287 745.018 558.287 756.865 550.981 764.171C543.674 771.478 531.828 771.478 524.522 764.171Z" fill="#8AD5F7" fill-opacity="0.03"/>
<path d="M486.305 767.652C477.079 766.155 470.814 757.462 472.311 748.235C473.809 739.009 482.502 732.744 491.728 734.241C500.953 735.738 507.219 744.432 505.721 753.658C504.224 762.884 495.531 769.15 486.305 767.652Z" fill="#8AD5F7" fill-opacity="0.03"/>
<path d="M440.319 765.528C432.264 765.528 425.735 758.999 425.735 750.944C425.735 742.889 432.264 736.36 440.319 736.36C448.373 736.36 454.902 742.889 454.902 750.944C454.902 758.999 448.373 765.528 440.319 765.528Z" fill="#8AD5F7" fill-opacity="0.03"/>
<path d="M389.484 763.939C382.307 762.774 377.434 756.012 378.599 748.836C379.763 741.659 386.525 736.785 393.701 737.95C400.878 739.115 405.751 745.877 404.586 753.053C403.422 760.23 396.66 765.103 389.484 763.939Z" fill="#8AD5F7" fill-opacity="0.03"/>
<path d="M342.896 762.822C336.336 762.822 331.018 757.504 331.018 750.944C331.018 744.384 336.336 739.066 342.896 739.066C349.456 739.066 354.773 744.384 354.773 750.944C354.773 757.504 349.456 762.822 342.896 762.822Z" fill="#8AD5F7" fill-opacity="0.03"/>
<path d="M292.536 760.992C286.985 760.092 283.217 754.862 284.118 749.312C285.019 743.762 290.249 739.992 295.799 740.893C301.349 741.793 305.118 747.022 304.217 752.573C303.316 758.123 298.086 761.893 292.536 760.992Z" fill="#8AD5F7" fill-opacity="0.03"/>
<path d="M245.473 759.678C240.65 759.678 236.739 755.768 236.739 750.944C236.739 746.12 240.65 742.209 245.473 742.209C250.297 742.209 254.207 746.12 254.207 750.944C254.207 755.768 250.297 759.678 245.473 759.678Z" fill="#8AD5F7" fill-opacity="0.03"/>
<path d="M196.766 758.053C192.84 758.053 189.657 754.87 189.657 750.944C189.657 747.018 192.84 743.835 196.766 743.835C200.692 743.835 203.875 747.018 203.875 750.944C203.875 754.87 200.692 758.053 196.766 758.053Z" fill="#8AD5F7" fill-opacity="0.03"/>
<path d="M142.941 753.045C141.778 750.238 143.111 747.02 145.918 745.858C148.725 744.695 151.944 746.029 153.107 748.836C154.27 751.643 152.937 754.86 150.13 756.023C147.323 757.185 144.105 755.852 142.941 753.045Z" fill="#8AD5F7" fill-opacity="0.03"/>
<path d="M96.5207 747.756C98.289 746.202 100.977 746.372 102.531 748.14C104.085 749.908 103.915 752.596 102.147 754.15C100.379 755.704 97.6906 755.535 96.1367 753.766C94.5917 751.998 94.7614 749.31 96.5207 747.756Z" fill="#8AD5F7" fill-opacity="0.03"/>
<path d="M629.881 724.481C617.569 721.574 609.945 709.236 612.852 696.924C615.759 684.611 628.097 676.987 640.409 679.894C652.721 682.801 660.345 695.139 657.437 707.452C654.53 719.764 642.193 727.389 629.881 724.481Z" fill="#8AD5F7" fill-opacity="0.03"/>
<path d="M571.073 717.624C562.574 709.125 562.574 695.344 571.073 686.845C579.572 678.345 593.352 678.345 601.851 686.845C610.351 695.344 610.351 709.125 601.851 717.624C593.352 726.124 579.572 726.124 571.073 717.624Z" fill="#8AD5F7" fill-opacity="0.03"/>
<path d="M523.824 716.156C516.134 708.466 516.134 695.997 523.824 688.307C531.514 680.616 543.982 680.616 551.672 688.307C559.362 695.997 559.362 708.466 551.672 716.156C543.982 723.846 531.514 723.846 523.824 716.156Z" fill="#8AD5F7" fill-opacity="0.03"/>
<path d="M484.927 719.522C475.351 717.26 469.421 707.664 471.683 698.088C473.944 688.511 483.54 682.581 493.116 684.843C502.692 687.104 508.622 696.7 506.36 706.277C504.099 715.853 494.503 721.783 484.927 719.522Z" fill="#8AD5F7" fill-opacity="0.03"/>
<path d="M440.319 717.587C431.84 717.587 424.967 710.714 424.967 702.235C424.967 693.756 431.84 686.883 440.319 686.883C448.797 686.883 455.67 693.756 455.67 702.235C455.67 710.714 448.797 717.587 440.319 717.587Z" fill="#8AD5F7" fill-opacity="0.03"/>
<path d="M388.42 715.657C380.976 713.899 376.365 706.439 378.123 698.994C379.881 691.549 387.342 686.938 394.786 688.696C402.231 690.454 406.841 697.915 405.083 705.36C403.326 712.805 395.865 717.415 388.42 715.657Z" fill="#8AD5F7" fill-opacity="0.03"/>
<path d="M342.896 714.738C335.991 714.738 330.394 709.14 330.394 702.235C330.394 695.33 335.991 689.732 342.896 689.732C349.801 689.732 355.399 695.33 355.399 702.235C355.399 709.14 349.801 714.738 342.896 714.738Z" fill="#8AD5F7" fill-opacity="0.03"/>
<path d="M286.618 709.814C282.433 705.629 282.433 698.844 286.618 694.658C290.803 690.473 297.588 690.473 301.773 694.658C305.958 698.844 305.958 705.629 301.773 709.814C297.588 714 290.803 714 286.618 709.814Z" fill="#8AD5F7" fill-opacity="0.03"/>
<path d="M243.36 711.112C238.421 709.946 235.362 704.996 236.528 700.057C237.695 695.117 242.644 692.059 247.583 693.225C252.522 694.391 255.581 699.341 254.415 704.28C253.248 709.22 248.299 712.279 243.36 711.112Z" fill="#8AD5F7" fill-opacity="0.03"/>
<path d="M196.766 709.719C192.633 709.719 189.282 706.368 189.282 702.235C189.282 698.102 192.633 694.751 196.766 694.751C200.899 694.751 204.25 698.102 204.25 702.235C204.25 706.368 200.899 709.719 196.766 709.719Z" fill="#8AD5F7" fill-opacity="0.03"/>
<path d="M143.955 706.332C141.691 704.069 141.691 700.399 143.955 698.135C146.22 695.872 149.891 695.872 152.155 698.135C154.42 700.399 154.42 704.069 152.155 706.332C149.891 708.596 146.22 708.596 143.955 706.332Z" fill="#8AD5F7" fill-opacity="0.03"/>
<path d="M96.3781 698.868C98.2356 697.234 101.067 697.412 102.701 699.27C104.335 701.128 104.156 703.959 102.299 705.593C100.441 707.227 97.6105 707.049 95.9762 705.191C94.3419 703.342 94.5205 700.502 96.3781 698.868Z" fill="#8AD5F7" fill-opacity="0.03"/>
<path d="M48.153 704.414C46.9473 703.047 47.0812 700.967 48.4476 699.761C49.814 698.555 51.8949 698.689 53.1005 700.056C54.3061 701.422 54.1721 703.503 52.8058 704.709C51.4394 705.905 49.3586 705.78 48.153 704.414Z" fill="#8AD5F7" fill-opacity="0.03"/>
<path d="M581.179 675.765C568.867 672.857 561.243 660.519 564.15 648.207C567.057 635.894 579.395 628.27 591.707 631.177C604.019 634.085 611.643 646.423 608.736 658.735C605.829 671.048 593.491 678.672 581.179 675.765Z" fill="#8AD5F7" fill-opacity="0.03"/>
<path d="M532.967 673.641C521.826 671.01 514.927 659.846 517.558 648.704C520.188 637.563 531.352 630.664 542.493 633.295C553.634 635.925 560.533 647.09 557.902 658.231C555.271 669.372 544.107 676.272 532.967 673.641Z" fill="#8AD5F7" fill-opacity="0.03"/>
<path d="M475.782 666.78C468.458 659.456 468.458 647.581 475.782 640.257C483.106 632.933 494.98 632.933 502.304 640.257C509.628 647.581 509.628 659.456 502.304 666.78C494.98 674.104 483.106 674.104 475.782 666.78Z" fill="#8AD5F7" fill-opacity="0.03"/>
<path d="M436.599 669.186C427.916 667.136 422.539 658.434 424.589 649.751C426.64 641.067 435.341 635.69 444.024 637.74C452.707 639.791 458.084 648.493 456.034 657.176C453.984 665.86 445.282 671.237 436.599 669.186Z" fill="#8AD5F7" fill-opacity="0.03"/>
<path d="M378.116 659.104C375.034 651.662 378.567 643.131 386.009 640.048C393.45 636.966 401.981 640.5 405.063 647.941C408.146 655.383 404.612 663.914 397.171 666.997C389.729 670.079 381.198 666.546 378.116 659.104Z" fill="#8AD5F7" fill-opacity="0.03"/>
<path d="M342.896 666.681C335.626 666.681 329.732 660.787 329.732 653.517C329.732 646.247 335.626 640.353 342.896 640.353C350.166 640.353 356.059 646.247 356.059 653.517C356.059 660.787 350.166 666.681 342.896 666.681Z" fill="#8AD5F7" fill-opacity="0.03"/>
<path d="M291.595 664.444C285.527 663.011 281.77 656.931 283.203 650.864C284.636 644.796 290.715 641.039 296.783 642.472C302.85 643.904 306.607 649.985 305.174 656.052C303.742 662.12 297.662 665.877 291.595 664.444Z" fill="#8AD5F7" fill-opacity="0.03"/>
<path d="M243.903 663.06C238.63 662.204 235.05 657.236 235.906 651.964C236.762 646.691 241.73 643.11 247.003 643.965C252.276 644.821 255.856 649.789 255 655.061C254.144 660.334 249.176 663.915 243.903 663.06Z" fill="#8AD5F7" fill-opacity="0.03"/>
<path d="M196.766 661.394C192.416 661.394 188.89 657.867 188.89 653.517C188.89 649.167 192.416 645.64 196.766 645.64C201.116 645.64 204.643 649.167 204.643 653.517C204.643 657.867 201.116 661.394 196.766 661.394Z" fill="#8AD5F7" fill-opacity="0.03"/>
<path d="M147.052 659.533C143.726 658.993 141.468 655.86 142.008 652.535C142.548 649.209 145.682 646.951 149.007 647.491C152.332 648.03 154.59 651.163 154.05 654.488C153.51 657.814 150.377 660.072 147.052 659.533Z" fill="#8AD5F7" fill-opacity="0.03"/>
<path d="M102.88 650.4C104.603 652.356 104.416 655.339 102.46 657.063C100.504 658.786 97.5214 658.599 95.7978 656.643C94.0742 654.687 94.2618 651.704 96.2175 649.981C98.1733 648.257 101.156 648.445 102.88 650.4Z" fill="#8AD5F7" fill-opacity="0.03"/>
<path d="M50.3827 656.938C48.4729 656.817 47.0228 655.171 47.1439 653.261C47.2649 651.351 48.9113 649.901 50.8212 650.021C52.7311 650.142 54.1811 651.789 54.0601 653.698C53.939 655.608 52.2926 657.059 50.3827 656.938Z" fill="#8AD5F7" fill-opacity="0.03"/>
<path d="M489.035 625.483C477.617 625.483 468.361 616.226 468.361 604.808C468.361 593.389 477.617 584.133 489.035 584.133C500.453 584.133 509.709 593.389 509.709 604.808C509.709 616.226 500.453 625.483 489.035 625.483Z" fill="#8AD5F7" fill-opacity="0.03"/>
<path d="M427.727 617.405C420.769 610.447 420.769 599.166 427.727 592.208C434.684 585.25 445.965 585.25 452.923 592.208C459.88 599.166 459.88 610.447 452.923 617.405C445.965 624.363 434.684 624.363 427.727 617.405Z" fill="#8AD5F7" fill-opacity="0.03"/>
<path d="M389.019 620.675C380.256 619.253 374.304 610.996 375.727 602.232C377.149 593.468 385.406 587.517 394.169 588.939C402.933 590.361 408.884 598.619 407.462 607.382C406.039 616.146 397.782 622.098 389.019 620.675Z" fill="#8AD5F7" fill-opacity="0.03"/>
<path d="M342.896 619.321C334.881 619.321 328.384 612.823 328.384 604.808C328.384 596.793 334.881 590.295 342.896 590.295C350.911 590.295 357.408 596.793 357.408 604.808C357.408 612.823 350.911 619.321 342.896 619.321Z" fill="#8AD5F7" fill-opacity="0.03"/>
<path d="M285.399 613.607C280.541 608.749 280.54 600.872 285.399 596.013C290.257 591.155 298.133 591.155 302.992 596.013C307.85 600.872 307.85 608.749 302.992 613.607C298.133 618.465 290.257 618.465 285.399 613.607Z" fill="#8AD5F7" fill-opacity="0.03"/>
<path d="M243.026 615.124C237.295 613.771 233.746 608.028 235.099 602.296C236.452 596.565 242.195 593.016 247.927 594.369C253.658 595.722 257.207 601.466 255.854 607.197C254.5 612.928 248.757 616.478 243.026 615.124Z" fill="#8AD5F7" fill-opacity="0.03"/>
<path d="M196.766 613.498C191.967 613.498 188.077 609.607 188.077 604.808C188.077 600.009 191.967 596.118 196.766 596.118C201.565 596.118 205.455 600.009 205.455 604.808C205.455 609.607 201.565 613.498 196.766 613.498Z" fill="#8AD5F7" fill-opacity="0.03"/>
<path d="M143.303 609.562C140.677 606.936 140.677 602.678 143.303 600.052C145.929 597.426 150.187 597.426 152.813 600.052C155.439 602.678 155.439 606.936 152.813 609.562C150.187 612.189 145.929 612.189 143.303 609.562Z" fill="#8AD5F7" fill-opacity="0.03"/>
<path d="M103.246 601.37C105.148 603.522 104.934 606.809 102.781 608.711C100.629 610.613 97.3427 610.399 95.4405 608.247C93.5383 606.094 93.7526 602.808 95.9049 600.905C98.0571 599.003 101.344 599.209 103.246 601.37Z" fill="#8AD5F7" fill-opacity="0.03"/>
<path d="M53.4941 602.28C54.8872 603.861 54.7354 606.281 53.1547 607.675C51.5741 609.068 49.1539 608.916 47.7608 607.335C46.3677 605.755 46.5194 603.334 48.1001 601.941C49.6808 600.548 52.101 600.691 53.4941 602.28Z" fill="#8AD5F7" fill-opacity="0.03"/>
<path d="M440.319 577.747C428.358 577.747 418.662 568.051 418.662 556.09C418.662 544.129 428.358 534.433 440.319 534.433C452.279 534.433 461.975 544.129 461.975 556.09C461.975 568.051 452.279 577.747 440.319 577.747Z" fill="#8AD5F7" fill-opacity="0.03"/>
<path d="M377.803 569.91C370.172 562.279 370.172 549.907 377.803 542.276C385.434 534.645 397.806 534.645 405.437 542.276C413.067 549.907 413.067 562.279 405.437 569.91C397.806 577.542 385.434 577.542 377.803 569.91Z" fill="#8AD5F7" fill-opacity="0.03"/>
<path d="M330.434 568.563C323.546 561.674 323.546 550.506 330.434 543.618C337.322 536.73 348.49 536.73 355.378 543.618C362.265 550.506 362.265 561.674 355.378 568.563C348.49 575.451 337.322 575.451 330.434 568.563Z" fill="#8AD5F7" fill-opacity="0.03"/>
<path d="M294.189 571.21C285.839 571.21 279.07 564.441 279.07 556.09C279.07 547.74 285.839 540.97 294.189 540.97C302.539 540.97 309.309 547.74 309.309 556.09C309.309 564.441 302.539 571.21 294.189 571.21Z" fill="#8AD5F7" fill-opacity="0.03"/>
<path d="M245.473 569.058C238.311 569.058 232.506 563.252 232.506 556.09C232.506 548.928 238.311 543.123 245.473 543.123C252.634 543.123 258.44 548.928 258.44 556.09C258.44 563.252 252.634 569.058 245.473 569.058Z" fill="#8AD5F7" fill-opacity="0.03"/>
<path d="M196.766 566.646C190.937 566.646 186.211 561.92 186.211 556.09C186.211 550.26 190.937 545.534 196.766 545.534C202.596 545.534 207.322 550.26 207.322 556.09C207.322 561.92 202.596 566.646 196.766 566.646Z" fill="#8AD5F7" fill-opacity="0.03"/>
<path d="M146.184 563.981C141.792 562.944 139.072 558.542 140.109 554.15C141.146 549.758 145.547 547.038 149.939 548.075C154.331 549.112 157.051 553.514 156.014 557.906C154.977 562.298 150.576 565.018 146.184 563.981Z" fill="#8AD5F7" fill-opacity="0.03"/>
<path d="M95.1636 551.348C97.7802 549.043 101.781 549.293 104.085 551.91C106.389 554.527 106.139 558.528 103.523 560.832C100.906 563.136 96.905 562.886 94.601 560.269C92.2969 557.653 92.5381 553.661 95.1636 551.348Z" fill="#8AD5F7" fill-opacity="0.03"/>
<path d="M54.1188 553.018C55.8155 554.947 55.628 557.885 53.7079 559.582C51.7879 561.279 48.8409 561.091 47.1441 559.171C45.4473 557.242 45.6348 554.304 47.5548 552.607C49.4838 550.91 52.422 551.098 54.1188 553.018Z" fill="#8AD5F7" fill-opacity="0.03"/>
<path d="M489.035 528.056C477.617 528.056 468.361 518.8 468.361 507.381C468.361 495.963 477.617 486.706 489.035 486.706C500.453 486.706 509.709 495.963 509.709 507.381C509.709 518.8 500.453 528.056 489.035 528.056Z" fill="#8AD5F7" fill-opacity="0.03"/>
<path d="M436.223 524.674C426.647 522.413 420.718 512.816 422.979 503.24C425.24 493.663 434.836 487.733 444.412 489.994C453.988 492.256 459.917 501.852 457.656 511.429C455.395 521.005 445.799 526.935 436.223 524.674Z" fill="#8AD5F7" fill-opacity="0.03"/>
<path d="M376.738 513.534C373.34 505.331 377.235 495.927 385.438 492.529C393.64 489.131 403.044 493.027 406.441 501.229C409.839 509.432 405.944 518.836 397.741 522.234C389.539 525.631 380.136 521.736 376.738 513.534Z" fill="#8AD5F7" fill-opacity="0.03"/>
<path d="M342.896 521.894C334.881 521.894 328.384 515.396 328.384 507.381C328.384 499.366 334.881 492.868 342.896 492.868C350.911 492.868 357.408 499.366 357.408 507.381C357.408 515.396 350.911 521.894 342.896 521.894Z" fill="#8AD5F7" fill-opacity="0.03"/>
<path d="M292.179 519.657C285.397 518.557 280.792 512.166 281.892 505.384C282.993 498.602 289.383 493.996 296.165 495.097C302.947 496.198 307.553 502.588 306.452 509.37C305.351 516.152 298.961 520.758 292.179 519.657Z" fill="#8AD5F7" fill-opacity="0.03"/>
<path d="M243.747 517.902C237.934 516.958 233.987 511.481 234.93 505.667C235.873 499.854 241.351 495.906 247.164 496.85C252.977 497.793 256.924 503.271 255.981 509.084C255.038 514.897 249.56 518.845 243.747 517.902Z" fill="#8AD5F7" fill-opacity="0.03"/>
<path d="M196.766 516.071C191.967 516.071 188.077 512.18 188.077 507.381C188.077 502.582 191.967 498.691 196.766 498.691C201.565 498.691 205.455 502.582 205.455 507.381C205.455 512.18 201.565 516.071 196.766 516.071Z" fill="#8AD5F7" fill-opacity="0.03"/>
<path d="M141.811 509.944C140.39 506.513 142.019 502.579 145.45 501.158C148.882 499.737 152.816 501.367 154.238 504.798C155.66 508.23 154.031 512.163 150.599 513.584C147.168 515.005 143.233 513.375 141.811 509.944Z" fill="#8AD5F7" fill-opacity="0.03"/>
<path d="M95.4405 510.819C93.5383 508.667 93.7526 505.38 95.9049 503.478C98.0571 501.576 101.344 501.79 103.246 503.942C105.148 506.095 104.934 509.381 102.781 511.283C100.62 513.177 97.3337 512.971 95.4405 510.819Z" fill="#8AD5F7" fill-opacity="0.03"/>
<path d="M47.7608 509.908C46.3677 508.328 46.5194 505.907 48.1001 504.514C49.6808 503.121 52.101 503.273 53.4941 504.854C54.8872 506.434 54.7354 508.855 53.1547 510.248C51.5741 511.641 49.1539 511.489 47.7608 509.908Z" fill="#8AD5F7" fill-opacity="0.03"/>
<path d="M489.035 530.959C499.242 530.959 508.021 537.05 511.951 545.784C515.21 537.621 522.23 531.37 530.865 529.173C521.604 526.252 514.889 517.598 514.889 507.373C514.889 494.753 525.123 484.518 537.742 484.518C550.361 484.518 560.595 494.753 560.595 507.373C560.595 517.598 553.879 526.252 544.618 529.173C551.057 530.816 556.585 534.701 560.345 539.952C563.346 535.103 567.659 531.164 572.785 528.61C565.819 524.118 561.202 516.286 561.202 507.381C561.202 495.289 569.704 485.188 581.055 482.705C571.651 480.303 564.694 471.774 564.694 461.62C564.694 449.599 574.437 439.855 586.458 439.855C598.478 439.855 608.222 449.599 608.222 461.62C608.222 471.774 601.265 480.303 591.861 482.705C600.282 484.536 607.132 490.574 610.106 498.504C612.714 491.136 618.474 485.269 625.77 482.509C617.813 478.919 612.267 470.917 612.267 461.62C612.267 448.965 622.519 438.712 635.174 438.712C647.828 438.712 658.081 448.965 658.081 461.62C658.081 470.917 652.535 478.919 644.578 482.509C650.704 484.822 655.741 489.341 658.741 495.084C661.456 489.546 665.948 485.036 671.467 482.295C664.457 478.079 659.768 470.399 659.768 461.62C659.768 448.304 670.565 437.506 683.881 437.506C693.24 437.506 701.349 442.838 705.341 450.635C707.949 444.169 712.789 438.855 718.897 435.622C711.208 430.978 706.073 422.547 706.073 412.911C706.073 403.274 711.217 394.843 718.897 390.199C712.78 386.975 707.949 381.653 705.341 375.187C701.34 382.974 693.24 388.315 683.881 388.315C670.565 388.315 659.769 377.518 659.769 364.202C659.769 352.377 668.279 342.544 679.514 340.49C668.994 338.668 660.706 330.371 658.884 319.86C656.83 331.095 646.998 339.606 635.174 339.606C621.858 339.606 611.061 328.809 611.061 315.493C611.061 302.177 621.858 291.379 635.174 291.379C646.998 291.379 656.83 299.89 658.884 311.125C660.706 300.605 669.003 292.317 679.514 290.495C668.279 288.441 659.769 278.608 659.769 266.784C659.769 253.468 670.565 242.67 683.881 242.67C693.24 242.67 701.349 248.002 705.341 255.799C707.752 249.833 712.057 244.84 717.522 241.563C711.753 237.856 707.44 232.078 705.627 225.282C702.608 234.4 694.017 240.982 683.881 240.982C671.226 240.982 660.974 230.73 660.974 218.075C660.974 205.42 671.226 195.167 683.881 195.167C694.008 195.167 702.599 201.749 705.627 210.867C707.886 202.392 714.03 195.515 722.032 192.238C713.396 188.245 707.404 179.511 707.404 169.366C707.404 159.22 713.396 150.486 722.032 146.494C714.03 143.216 707.886 136.339 705.627 127.864C702.608 136.982 694.017 143.564 683.881 143.564C671.226 143.564 660.974 133.312 660.974 120.657C660.974 108.002 671.226 97.7489 683.881 97.7489C694.008 97.7489 702.599 104.331 705.627 113.449C707.44 106.653 711.753 100.884 717.522 97.1684C712.057 93.8997 707.752 88.8984 705.341 82.9325C701.34 90.7203 693.24 96.0609 683.881 96.0609C670.566 96.0609 659.769 85.2635 659.769 71.9475C659.769 60.1231 668.279 50.2902 679.514 48.2361C668.994 46.4142 660.706 38.1174 658.884 27.6057C656.83 38.8408 646.998 47.3519 635.174 47.3519C621.858 47.3519 611.062 36.5545 611.062 23.2385C611.062 12.2 618.483 2.90292 628.601 0.0361088L641.747 0.03611C650.499 2.50996 657.232 9.80649 658.884 18.8713C660.349 10.4317 665.984 3.42092 673.584 0.0361128L694.169 0.0361146C698.607 2.00984 702.376 5.19816 705.037 9.20813C706.823 5.70722 709.261 2.60821 712.182 0.0361161L753.03 0.0361197C755.191 1.94733 757.093 4.13539 758.656 6.57352C760.532 4.02822 762.818 1.8223 765.425 0.0361208L797.191 0.0361236C798.834 1.16141 800.362 2.45639 801.728 3.90319C802.666 2.53677 803.711 1.25072 804.827 0.0361242L903 0.0361328L903 969.036L804.809 969.036C803.693 967.822 802.648 966.536 801.71 965.169C800.344 966.616 798.817 967.911 797.173 969.036L765.407 969.036C762.8 967.25 760.514 965.035 758.638 962.499C757.075 964.937 755.173 967.134 753.012 969.036L712.164 969.036C709.243 966.464 706.805 963.365 705.019 959.864C702.358 963.865 698.589 967.063 694.151 969.036L673.566 969.036C665.966 965.652 660.331 958.65 658.866 950.201C657.205 959.266 650.481 966.563 641.729 969.036L628.583 969.036C618.465 966.179 611.044 956.873 611.044 945.834C611.044 932.518 621.841 921.721 635.156 921.721C646.98 921.721 656.812 930.232 658.866 941.467C660.688 930.946 668.985 922.658 679.496 920.836C668.261 918.782 659.751 908.95 659.751 897.125C659.751 883.809 670.548 873.012 683.863 873.012C693.222 873.012 701.331 878.343 705.323 886.14C707.734 880.174 712.039 875.182 717.504 871.904C711.735 868.198 707.422 862.42 705.609 855.623C702.59 864.742 693.999 871.324 683.863 871.324C671.208 871.324 660.956 861.071 660.956 848.416C660.956 835.761 671.208 825.508 683.863 825.508C693.99 825.508 702.581 832.09 705.609 841.209C707.868 832.733 714.012 825.857 722.014 822.579C713.378 818.587 707.386 809.852 707.386 799.707C707.386 789.562 713.378 780.827 722.014 776.835C714.012 773.557 707.868 766.681 705.609 758.205C702.59 767.324 693.999 773.906 683.863 773.906C671.208 773.906 660.956 763.653 660.956 750.998C660.956 738.343 671.208 728.09 683.863 728.09C693.99 728.09 702.581 734.672 705.609 743.791C707.422 736.994 711.735 731.225 717.504 727.51C712.039 724.241 707.734 719.24 705.323 713.274C701.322 721.062 693.222 726.402 683.863 726.402C670.548 726.402 659.751 715.605 659.751 702.289C659.751 690.464 668.261 680.632 679.496 678.577C668.976 676.756 660.688 668.459 658.866 657.947C656.812 669.182 646.98 677.693 635.156 677.693C621.841 677.693 611.044 666.896 611.044 653.58C611.044 642.702 618.242 633.512 628.137 630.511C619.724 628.216 612.981 621.893 610.097 613.739C606.507 623.313 597.273 630.127 586.449 630.127C572.499 630.127 561.193 618.821 561.193 604.871C561.193 595.967 565.811 588.134 572.776 583.642C567.65 581.088 563.337 577.141 560.336 572.3C556.585 577.551 551.048 581.436 544.609 583.08C553.87 586 560.586 594.654 560.586 604.88C560.586 617.499 550.352 627.734 537.733 627.734C525.114 627.734 514.88 617.499 514.88 604.88C514.88 594.654 521.596 586 530.857 583.08C522.221 580.883 515.201 574.622 511.942 566.468C508.003 575.212 499.225 581.293 489.026 581.293C475.148 581.293 463.896 570.041 463.896 556.162C463.904 542.212 475.157 530.959 489.035 530.959ZM705.341 277.76C701.983 284.306 695.714 289.111 688.248 290.486C695.24 291.701 701.251 295.773 705.028 301.453C707.332 296.943 710.708 293.067 714.825 290.174C710.637 286.985 707.332 282.707 705.341 277.76ZM705.028 329.514C701.251 335.203 695.24 339.267 688.248 340.481C695.723 341.848 701.983 346.652 705.341 353.208C707.341 348.26 710.637 343.982 714.825 340.794C710.708 337.9 707.332 334.024 705.028 329.514ZM705.028 37.2332C701.251 42.9222 695.241 46.9857 688.248 48.2003C695.723 49.5668 701.983 54.3716 705.341 60.9268C707.341 55.9791 710.637 51.7012 714.825 48.5129C710.708 45.6193 707.332 41.7433 705.028 37.2332ZM705.341 908.074C701.983 914.621 695.714 919.425 688.248 920.801C695.24 922.015 701.251 926.088 705.028 931.768C707.332 927.258 710.708 923.382 714.825 920.488C710.637 917.309 707.332 913.022 705.341 908.074ZM758.638 39.8589C756.459 43.2526 753.646 46.1998 750.351 48.5129C753.691 51.0582 756.477 54.2912 758.477 58.0154C760.96 53.9518 764.497 50.6028 768.703 48.3522C764.72 46.3427 761.273 43.4223 758.638 39.8589ZM758.477 85.8172C755.959 90.497 752.208 94.4176 747.663 97.1416C752.387 100.178 756.138 104.59 758.335 109.823C761.085 103.983 766.006 99.3564 772.061 96.9897C766.372 94.891 761.594 90.9167 758.477 85.8172ZM758.335 131.436C755.477 138.241 749.993 143.671 743.153 146.467C750.681 149.95 756.2 157.032 757.495 165.516C759.103 155.442 766.944 147.458 776.937 145.627C768.676 144.198 761.8 138.786 758.335 131.436ZM758.638 298.819C761.264 295.255 764.711 292.335 768.703 290.334C764.497 288.084 760.96 284.735 758.477 280.671C756.477 284.395 753.691 287.628 750.351 290.174C753.646 292.487 756.468 295.425 758.638 298.819ZM750.351 340.794C753.691 343.339 756.477 346.572 758.477 350.296C760.96 346.233 764.497 342.884 768.703 340.633C764.711 338.633 761.264 335.712 758.638 332.149C756.468 335.534 753.646 338.481 750.351 340.794ZM758.477 252.869C761.594 247.77 766.363 243.796 772.052 241.697C766.006 239.33 761.085 234.713 758.326 228.863C756.129 234.097 752.378 238.508 747.654 241.545C752.208 244.269 755.959 248.19 758.477 252.869ZM758.477 378.098C755.709 383.242 751.449 387.467 746.278 390.199C752.056 393.691 756.397 399.336 758.192 406.016C760.469 398.371 766.443 392.316 774.043 389.914C767.488 388.056 761.951 383.778 758.477 378.098ZM758.192 419.805C756.397 426.486 752.056 432.13 746.278 435.622C751.449 438.355 755.709 442.57 758.477 447.723C761.951 442.034 767.479 437.756 774.043 435.908C766.443 433.514 760.478 427.459 758.192 419.805ZM759.013 626.359C757.54 628.163 755.879 629.815 754.075 631.288C755.807 632.959 757.343 634.834 758.647 636.87C760.317 634.602 762.318 632.592 764.577 630.922C762.55 629.61 760.683 628.082 759.013 626.359ZM763.791 481.795C761.719 479.99 759.924 477.883 758.486 475.525C757.379 477.588 756.03 479.499 754.477 481.232C756.129 482.616 757.656 484.161 759.022 485.831C760.469 484.331 762.059 482.973 763.791 481.795ZM758.638 670.182C756.459 673.576 753.646 676.523 750.351 678.836C753.691 681.382 756.477 684.615 758.477 688.339C760.96 684.275 764.497 680.926 768.703 678.676C764.72 676.666 761.273 673.746 758.638 670.182ZM758.477 716.132C755.959 720.812 752.208 724.732 747.663 727.456C752.387 730.493 756.138 734.905 758.335 740.138C761.085 734.297 766.006 729.671 772.061 727.304C766.372 725.215 761.594 721.231 758.477 716.132ZM758.335 761.751C755.477 768.556 749.993 773.986 743.153 776.781C750.681 780.265 756.2 787.347 757.495 795.831C759.103 785.757 766.944 777.773 776.937 775.942C768.676 774.513 761.8 769.101 758.335 761.751ZM801.719 42.5382C799.477 44.9049 796.834 46.8786 793.896 48.3522C797.066 50.049 799.861 52.3711 802.103 55.1575C803.514 52.8087 805.22 50.6563 807.158 48.7362C805.104 46.8964 803.273 44.8155 801.719 42.5382ZM802.103 88.6751C799.102 92.3993 795.119 95.3018 790.547 96.9897C795.432 98.9009 799.585 102.286 802.451 106.599C804.255 103.063 806.72 99.9191 809.676 97.338C806.667 94.9267 804.095 91.9974 802.103 88.6751ZM848.193 145.645C848.059 145.743 847.917 145.842 847.783 145.94C848.131 146.199 848.47 146.467 848.801 146.744C848.854 146.672 848.908 146.61 848.961 146.538C848.702 146.244 848.435 145.949 848.193 145.645ZM848.193 823.356C848.443 823.052 848.702 822.758 848.961 822.463C848.908 822.391 848.854 822.329 848.801 822.257C848.47 822.534 848.131 822.802 847.783 823.061C847.917 823.16 848.05 823.258 848.193 823.356ZM848.952 776.862C848.693 776.567 848.434 776.272 848.184 775.969C848.05 776.067 847.908 776.165 847.774 776.263C848.122 776.522 848.461 776.79 848.792 777.067C848.845 776.996 848.899 776.933 848.952 776.862ZM848.193 193.032C848.443 192.729 848.702 192.434 848.961 192.139C848.908 192.068 848.854 192.005 848.801 191.934C848.47 192.211 848.131 192.479 847.783 192.738C847.917 192.836 848.051 192.934 848.193 193.032ZM801.719 926.463C803.282 924.186 805.113 922.105 807.158 920.265C805.22 918.354 803.514 916.192 802.103 913.844C799.861 916.621 797.075 918.943 793.896 920.649C796.834 922.131 799.477 924.105 801.719 926.463ZM802.103 880.326C804.103 877.013 806.675 874.083 809.676 871.672C806.711 869.082 804.255 865.947 802.451 862.411C799.585 866.724 795.432 870.1 790.547 872.02C795.119 873.699 799.093 876.602 802.103 880.326ZM802.451 834.341C804.755 829.831 808.131 825.955 812.248 823.061C808.06 819.882 804.764 815.595 802.764 810.647C799.406 817.194 793.137 821.998 785.671 823.374C792.663 824.588 798.674 828.652 802.451 834.341ZM802.764 788.668C804.764 783.721 808.06 779.443 812.248 776.255C808.131 773.361 804.755 769.485 802.451 764.975C798.674 770.664 792.663 774.727 785.671 775.942C793.137 777.317 799.397 782.122 802.764 788.668ZM801.719 296.148C803.282 293.871 805.113 291.79 807.158 289.95C805.22 288.039 803.514 285.878 802.103 283.529C799.861 286.307 797.075 288.629 793.896 290.334C796.834 291.808 799.477 293.782 801.719 296.148ZM793.896 340.624C797.066 342.321 799.861 344.643 802.103 347.429C803.514 345.081 805.22 342.928 807.158 341.008C805.104 339.168 803.273 337.087 801.719 334.81C799.477 337.177 796.834 339.151 793.896 340.624ZM802.103 250.002C804.103 246.689 806.675 243.76 809.676 241.348C806.711 238.758 804.255 235.624 802.451 232.087C799.585 236.401 795.432 239.777 790.547 241.697C795.119 243.376 799.093 246.278 802.103 250.002ZM802.103 380.956C798.674 385.207 793.967 388.386 788.564 389.905C794.744 391.852 799.853 396.228 802.764 401.917C804.55 397.496 807.372 393.62 810.935 390.566C807.381 387.993 804.371 384.725 802.103 380.956ZM802.764 423.896C799.844 429.576 794.744 433.961 788.564 435.908C793.967 437.426 798.674 440.605 802.103 444.856C804.371 441.088 807.39 437.819 810.935 435.247C807.372 432.201 804.541 428.316 802.764 423.896ZM800.871 628.859C799.969 629.601 799.013 630.279 798.031 630.913C799.352 631.896 800.585 632.994 801.719 634.191C802.291 633.352 802.898 632.539 803.541 631.762C802.603 630.833 801.71 629.869 800.871 628.859ZM803.478 480.482C802.996 479.803 802.532 479.106 802.094 478.383C801.103 479.615 799.995 480.75 798.808 481.786C799.513 482.268 800.201 482.786 800.862 483.322C801.692 482.339 802.567 481.384 803.478 480.482ZM801.719 672.853C799.477 675.22 796.834 677.193 793.896 678.667C797.066 680.364 799.861 682.686 802.103 685.472C803.514 683.123 805.22 680.971 807.158 679.051C805.104 677.211 803.273 675.13 801.719 672.853ZM802.103 718.999C799.102 722.723 795.119 725.625 790.547 727.313C795.432 729.225 799.585 732.609 802.451 736.923C804.255 733.386 806.72 730.243 809.676 727.662C806.666 725.241 804.094 722.312 802.103 718.999ZM802.451 204.026C804.755 199.516 808.131 195.64 812.248 192.747C808.06 189.567 804.764 185.28 802.764 180.333C799.406 186.879 793.137 191.684 785.671 193.059C792.663 194.265 798.674 198.337 802.451 204.026ZM802.764 158.354C804.764 153.406 808.06 149.128 812.248 145.94C808.131 143.046 804.755 139.17 802.451 134.66C798.674 140.349 792.663 144.413 785.671 145.627C793.137 146.994 799.397 151.799 802.764 158.354ZM758.638 929.142C761.264 925.579 764.711 922.658 768.703 920.658C764.497 918.407 760.96 915.058 758.477 910.995C756.477 914.719 753.691 917.952 750.351 920.497C753.646 922.801 756.468 925.748 758.638 929.142ZM758.477 883.184C761.594 878.084 766.363 874.11 772.052 872.011C766.006 869.645 761.085 865.027 758.326 859.178C756.129 864.411 752.378 868.823 747.654 871.86C752.208 874.583 755.959 878.504 758.477 883.184ZM758.335 837.565C761.8 830.215 768.685 824.803 776.937 823.374C766.944 821.543 759.103 813.559 757.495 803.485C756.2 811.96 750.681 819.051 743.153 822.534C749.984 825.33 755.468 830.76 758.335 837.565ZM758.335 207.25C761.8 199.9 768.685 194.488 776.937 193.059C766.944 191.228 759.103 183.244 757.495 173.17C756.2 181.646 750.681 188.737 743.153 192.22C749.985 195.015 755.468 200.436 758.335 207.25ZM705.341 472.614C703.287 476.624 700.143 479.982 696.294 482.304C699.331 483.804 702.046 485.849 704.332 488.296C706.118 485.653 708.27 483.277 710.708 481.232C708.449 478.713 706.627 475.802 705.341 472.614ZM704.332 623.894C701.67 626.743 698.42 629.047 694.776 630.583C698.947 632.566 702.492 635.665 705.028 639.478C706.591 636.415 708.654 633.637 711.101 631.271C708.502 629.163 706.216 626.68 704.332 623.894ZM705.341 691.241C707.341 686.294 710.637 682.016 714.825 678.828C710.708 675.934 707.332 672.058 705.028 667.548C701.251 673.237 695.24 677.3 688.248 678.515C695.714 679.89 701.974 684.695 705.341 691.241ZM658.733 519.67C656.982 523.019 654.544 525.949 651.597 528.271C654.089 529.744 656.357 531.54 658.366 533.611C660.278 531.441 662.457 529.521 664.85 527.896C662.34 525.565 660.26 522.778 658.733 519.67ZM658.366 578.578C656.366 580.642 654.089 582.446 651.597 583.919C654.544 586.241 656.982 589.17 658.733 592.52C660.251 589.412 662.34 586.625 664.85 584.303C662.448 582.669 660.278 580.74 658.366 578.578ZM658.875 649.15C660.304 640.934 665.672 634.066 672.977 630.592C666.761 627.957 661.689 623.144 658.733 617.097C655.348 623.572 649.373 628.475 642.184 630.449C650.722 633.039 657.25 640.237 658.875 649.15ZM610.106 595.931C611.803 591.144 614.821 586.991 618.733 583.91C615.277 581.865 612.24 579.195 609.767 576.051C607.105 579.159 603.828 581.731 600.13 583.571C604.649 586.5 608.186 590.823 610.106 595.931ZM609.767 536.13C612.24 532.986 615.277 530.316 618.733 528.271C614.821 525.19 611.794 521.037 610.106 516.25C608.186 521.367 604.658 525.69 600.13 528.61C603.828 530.45 607.105 533.022 609.767 536.13Z" fill="#8AD5F7" fill-opacity="0.03"/>
</g>
<defs>
<clipPath id="clip0_1217_4451">
<rect width="903" height="969" fill="white" />
</clipPath>
</defs>
</svg>
