<svg width="1820" height="1148" viewBox="0 0 1820 1148" fill="none" xmlns="http://www.w3.org/2000/svg">
<path d="M45.073 420.958C44.6007 418.147 44.7168 413.377 45.5668 407.014C46.4115 400.69 47.9637 392.913 50.2868 384.146C54.933 366.612 62.6459 345.184 73.8846 323.602C96.3825 280.401 132.873 236.834 186.935 222.348C295.272 193.319 379.211 269.872 413.562 322.557C430.705 348.849 448.7 391.827 450.56 428.455C451.49 446.761 448.379 463.275 439.348 475.354C430.363 487.37 415.319 495.256 391.785 495.94C367.859 496.636 351.887 499.074 340.644 503.075C329.328 507.101 322.822 512.704 317.835 519.601C315.366 523.016 313.281 526.73 311.179 530.657C310.71 531.532 310.241 532.418 309.766 533.314C308.099 536.458 306.362 539.734 304.34 543.167C299.168 551.95 292.157 561.704 280.004 572.215C255.861 593.097 226.502 596.89 195.947 589.098C165.345 581.293 133.625 561.874 105.076 536.47C76.5814 511.115 62.6313 488.299 55.2793 468.868C49.5844 453.816 47.8358 440.808 46.3801 429.979C45.9503 426.781 45.5459 423.773 45.073 420.958Z" stroke="#192857" stroke-width="3"/>
<path d="M1432.19 94.075C1485.65 90.6134 1557.33 90.98 1614.18 110.94C1642.58 120.913 1667.17 135.74 1683.97 157.322C1700.74 178.872 1709.84 207.291 1707.04 244.677C1701.38 320.07 1693.44 383.473 1679.18 434.475C1664.92 485.473 1644.39 523.925 1613.67 549.574C1598.19 562.502 1582.66 573.596 1568.05 580.299C1553.43 587.009 1539.95 589.215 1528.4 584.757C1516.88 580.309 1506.84 569.062 1499.46 547.874C1492.08 526.687 1487.45 495.777 1486.59 452.427C1485.73 408.977 1482.36 379.728 1476.7 360.138C1471.03 340.521 1462.99 330.355 1452.64 325.455C1442.43 320.618 1430.26 321.088 1416.87 321.921C1415.95 321.978 1415.03 322.037 1414.1 322.096C1401.33 322.91 1387.29 323.805 1372.05 321.09C1339.57 315.306 1318.65 292.344 1306.6 265.452C1294.53 238.533 1291.47 207.892 1294.6 187.269C1297.74 166.582 1305.62 145.081 1325.84 127.867C1346.08 110.628 1378.88 97.5272 1432.19 94.075Z" stroke="#207CA2" stroke-width="3"/>
<rect x="1327.44" y="742.74" width="255.497" height="255.497" transform="rotate(-17.4187 1327.44 742.74)" stroke="#80C4D9" stroke-width="3"/>
<rect x="1085.31" y="622.458" width="374.57" height="187.642" transform="rotate(55.9404 1085.31 622.458)" stroke="#6FC3B3" stroke-width="3"/>
<path d="M809.358 1078.19C764.413 1090.23 720.541 1089 685.966 1077.35C651.379 1065.69 626.266 1043.68 618.384 1014.27C610.501 984.852 621.247 953.238 645.372 925.849C669.489 898.47 706.867 875.467 751.812 863.424C796.757 851.381 840.629 852.613 875.204 864.266C909.792 875.923 934.904 897.929 942.787 927.345C950.669 956.761 939.923 988.375 915.798 1015.76C891.681 1043.14 854.303 1066.15 809.358 1078.19Z" stroke="#F0BE23" stroke-width="3"/>
<path d="M378.969 1025.02C323.235 1091.43 221.696 1098.11 152.157 1039.75C82.6176 981.387 71.5866 880.229 127.321 813.819C183.056 747.41 284.595 740.726 354.134 799.087C423.673 857.448 434.704 958.607 378.969 1025.02Z" stroke="#F15E5C" stroke-width="3"/>
</svg>
